<?xml version="1.0" encoding="UTF-8"?>
<svg version="1.1" xmlns="http://www.w3.org/2000/svg" width="512" height="512">
<path d="M0 0 C12.02162178 0 19.26879798 4.43627893 28.0625 12.3125 C28.81402344 12.96992187 29.56554687 13.62734375 30.33984375 14.3046875 C51.23129427 33.76421083 60.95211971 63.55008348 63.0625 91.3125 C63.9596875 90.67183594 64.856875 90.03117187 65.78125 89.37109375 C90.31399453 72.20815877 121.71030559 62.70959715 151.71875 67.99609375 C161.764652 70.456523 170.15294016 74.63283399 176.0625 83.3125 C176.4480305 84.9678716 176.79087842 86.63467087 177.0625 88.3125 C168.54500324 91.96161402 159.93932866 95.2489377 151.21484375 98.3671875 C149.90977377 98.83623159 148.6048089 99.30556821 147.29994202 99.775177 C143.89047106 101.00145554 140.47977007 102.22427329 137.06872559 103.44616699 C131.64932753 105.38822189 126.23189387 107.33575671 120.81425858 109.28272247 C119.50276052 109.75398211 118.19121453 110.22510838 116.8796196 110.69609833 C106.25307652 114.5123017 95.64656304 118.38000144 85.0625 122.3125 C85.67544922 122.48265625 86.28839844 122.6528125 86.91992188 122.828125 C99.99893215 126.50629094 112.28362905 130.47776803 124.0625 137.3125 C124.66884277 137.66038574 125.27518555 138.00827148 125.89990234 138.36669922 C134.98964814 143.66440383 142.54690034 149.9881656 150.0625 157.3125 C151.04476562 158.18455078 151.04476562 158.18455078 152.046875 159.07421875 C161.53720731 167.71564519 169.04082178 180.6778368 170.3984375 193.48046875 C170.59368604 199.525664 169.9618343 203.99705378 167.0625 209.3125 C160.88083713 207.68410894 155.75159366 204.37002905 150.3125 201.125 C148.14882451 199.84830222 145.98474834 198.57228329 143.8203125 197.296875 C142.70430664 196.63751953 141.58830078 195.97816406 140.43847656 195.29882812 C135.0412367 192.12324644 129.61486 188.9987344 124.1875 185.875 C122.00258624 184.61591652 119.81769051 183.35680177 117.6328125 182.09765625 C116.54774414 181.47262207 115.46267578 180.84758789 114.34472656 180.20361328 C108.91590061 177.07569853 103.48928636 173.94395157 98.0625 170.8125 C91.92538313 167.27129797 85.78812239 163.7303489 79.6491394 160.19238281 C77.25823403 158.81443062 74.86751328 157.43615828 72.47680664 156.05786133 C70.79266037 155.08709018 69.10824769 154.11678126 67.42382812 153.14648438 C66.40095703 152.55673828 65.37808594 151.96699219 64.32421875 151.359375 C63.42662842 150.84213867 62.52903809 150.32490234 61.60424805 149.79199219 C59.07671255 148.3207728 56.5667345 146.82298171 54.0625 145.3125 C53.89016846 145.96806885 53.71783691 146.6236377 53.5402832 147.29907227 C52.21241708 152.2681586 50.81127255 157.19490591 49.23046875 162.08984375 C28.76967424 225.46175679 28.70572951 286.8151066 38.0625 352.3125 C103.4025 352.3125 168.7425 352.3125 236.0625 352.3125 C236.3925 350.6625 236.7225 349.0125 237.0625 347.3125 C237.74899791 345.21700201 238.47355191 343.13380305 239.22387695 341.06030273 C239.55095642 340.15177803 239.55095642 340.15177803 239.88464355 339.22489929 C240.60342474 337.23076855 241.32713367 335.2384631 242.05078125 333.24609375 C242.55578598 331.84721827 243.06043399 330.44821396 243.56474304 329.04908752 C244.89345279 325.36518491 246.22614319 321.68273604 247.55993652 318.00067139 C249.68454676 312.13388972 251.80373589 306.26515072 253.92174339 300.39598274 C254.65576982 298.36399103 255.39186434 296.33275816 256.12825012 294.30162048 C258.8876547 286.67510357 261.54286741 279.02179178 264.0625 271.3125 C263.11850342 271.16304932 262.17450684 271.01359863 261.2019043 270.85961914 C258.52197493 270.39257491 256.36971428 269.78075021 253.875 268.75 C251.26467901 267.67395052 249.9669889 267.3125 247.0625 267.3125 C246.66417969 268.36050781 246.26585937 269.40851563 245.85546875 270.48828125 C245.32072827 271.86734879 244.78554898 273.24624623 244.25 274.625 C243.98896484 275.31529297 243.72792969 276.00558594 243.45898438 276.71679688 C240.82403523 283.45055579 240.82403523 283.45055579 238.0625 285.3125 C234.0114244 285.69831672 231.33978371 285.86926469 227.625 284.25 C225.2749715 281.33596465 225.27075177 279.03128159 225.0625 275.3125 C225.75287992 272.3724039 226.83673949 269.65715259 228 266.875 C228.29068359 266.14345703 228.58136719 265.41191406 228.88085938 264.65820312 C229.59361567 262.87047011 230.32606755 261.09061082 231.0625 259.3125 C230.19367188 259.19003906 229.32484375 259.06757813 228.4296875 258.94140625 C225.15904697 258.33053256 222.2945291 257.42460856 219.1875 256.25 C218.22070312 255.88777344 217.25390625 255.52554688 216.2578125 255.15234375 C215.53335937 254.87519531 214.80890625 254.59804688 214.0625 254.3125 C213.73636719 255.12074219 213.41023438 255.92898438 213.07421875 256.76171875 C212.63722656 257.83035156 212.20023437 258.89898437 211.75 260 C211.32074219 261.05574219 210.89148438 262.11148437 210.44921875 263.19921875 C208.48761915 267.60314799 207.12065074 270.60706617 203.0625 273.3125 C199.31973448 273.80068681 197.54173945 273.5893939 194.25 271.6875 C191.4548777 268.65279579 191.2275875 267.44427314 191.0625 263.3125 C191.96032192 259.63797557 193.27099688 256.15326257 194.625 252.625 C195.17982056 251.14833862 195.17982056 251.14833862 195.74584961 249.6418457 C204.46137979 226.89855192 219.67068603 209.43917691 242.0625 199.4375 C258.175369 193.32645126 275.11000379 192.85101343 292.0625 195.3125 C292.46082031 194.19230469 292.85914063 193.07210937 293.26953125 191.91796875 C293.80424786 190.44515281 294.33942844 188.97250526 294.875 187.5 C295.13603516 186.76201172 295.39707031 186.02402344 295.66601562 185.26367188 C296.05756836 184.19536133 296.05756836 184.19536133 296.45703125 183.10546875 C296.69268799 182.4508667 296.92834473 181.79626465 297.17114258 181.12182617 C298.20451614 179.02422784 299.25408912 177.79195938 301.0625 176.3125 C305.02523876 175.28512329 307.17376973 174.90677531 310.9375 176.625 C313.0625 178.3125 313.0625 178.3125 314.0625 180.3125 C314.63398002 186.59878026 313.30363079 191.06957732 310.9375 196.89453125 C309.89236051 199.35409236 309.89236051 199.35409236 310.0625 202.3125 C312.18554564 203.92959329 312.18554564 203.92959329 314.9375 205.4375 C320.97978039 209.12957377 326.02159618 213.3557515 331.0625 218.3125 C331.76246094 218.99957031 332.46242188 219.68664062 333.18359375 220.39453125 C349.27448401 237.30094422 353.59343503 258.14590856 353.33984375 280.765625 C353.11904749 288.49459258 351.73348432 295.02874215 349.0625 302.3125 C348.57404534 303.75080184 348.08713959 305.18963038 347.6015625 306.62890625 C347.09243027 308.08730085 346.57948069 309.54436907 346.0625 311 C345.8257959 311.67240723 345.5890918 312.34481445 345.34521484 313.03759766 C343.87243824 316.94669624 342.40978024 319.757663 339.0625 322.3125 C336.31458587 323.04241469 333.84238279 322.85936219 331.0625 322.3125 C328.5625 320.8125 328.5625 320.8125 327.0625 318.3125 C325.76272245 310.5138347 329.25004472 303.46417201 332.0625 296.3125 C330.54185206 295.85355193 329.02097052 295.39537786 327.5 294.9375 C326.65308594 294.68226563 325.80617188 294.42703125 324.93359375 294.1640625 C321.64977214 293.19008548 318.35713619 292.24917036 315.0625 291.3125 C314.67578125 292.34890625 314.2890625 293.3853125 313.890625 294.453125 C313.36514306 295.82313149 312.83907011 297.19291139 312.3125 298.5625 C312.05984375 299.24441406 311.8071875 299.92632812 311.546875 300.62890625 C309.99043816 304.63673112 308.56429378 307.61305897 305.0625 310.3125 C300.65481863 311.03375695 298.80312512 310.83251338 295.125 308.25 C292.44526445 304.43340694 292.39273071 302.92646625 293.0625 298.3125 C294.0075435 295.41652978 295.05072602 292.59177143 296.1875 289.765625 C297.23047816 287.27564542 297.23047816 287.27564542 297.0625 284.3125 C294.77217689 283.47530617 292.48039043 282.6426071 290.1875 281.8125 C289.53652344 281.57402344 288.88554687 281.33554687 288.21484375 281.08984375 C284.72792411 279.76372467 284.72792411 279.76372467 281.0625 279.3125 C278.40994498 286.50227416 275.75818372 293.69234066 273.10738087 300.882761 C271.87591776 304.22308606 270.64420156 307.5633173 269.41186523 310.90332031 C268.21818093 314.13859549 267.02521589 317.3741351 265.83270836 320.60984421 C265.16587298 322.41867189 264.49833054 324.22723887 263.83076477 326.03579712 C262.56938135 329.4594549 261.31403694 332.88523099 260.0625 336.3125 C259.82944027 336.94901237 259.59638054 337.58552475 259.35625839 338.24132538 C258.64890333 340.17702619 257.94625701 342.11437477 257.24487305 344.05224609 C256.82666794 345.20357025 256.40846283 346.35489441 255.97758484 347.54110718 C254.95798676 350.14259819 254.95798676 350.14259819 255.0625 352.3125 C256.1040625 352.52003906 257.145625 352.72757812 258.21875 352.94140625 C283.81420864 358.32723023 305.98619898 371.49356488 321.1171875 393.26953125 C329.8319649 406.86787259 337.73624521 423.72800255 337.0625 440.3125 C337.64741211 440.29155273 338.23232422 440.27060547 338.83496094 440.24902344 C341.49396465 440.16569885 344.15269355 440.11379103 346.8125 440.0625 C347.73289062 440.02898437 348.65328125 439.99546875 349.6015625 439.9609375 C356.39737804 439.86244742 356.39737804 439.86244742 359.671875 442.078125 C361.12226504 444.40852697 361.60495545 445.59535134 361.5625 448.3125 C361.5728125 448.9725 361.583125 449.6325 361.59375 450.3125 C360.79795665 453.30842791 359.50063502 454.40902246 357.0625 456.3125 C354.3903639 456.70470434 352.13026285 456.85059916 349.45996094 456.81586456 C348.68664555 456.82167833 347.91333015 456.82749209 347.11658096 456.83348203 C344.50969981 456.84814984 341.90375023 456.83416565 339.296875 456.82043457 C337.41535966 456.82504081 335.53384792 456.83139186 333.65234375 456.83934355 C328.46988864 456.856098 323.28772678 456.84776277 318.10527039 456.83539867 C312.52100602 456.82637547 306.93679328 456.84030432 301.35253906 456.85131836 C290.40817952 456.8691374 279.46392948 456.86524853 268.51956558 456.8536678 C259.62761789 456.84464705 250.73570096 456.84340358 241.84375 456.84776306 C240.57988213 456.84837599 239.31601425 456.84898893 238.01384735 456.84962043 C235.4466044 456.85089929 232.87936146 456.85219614 230.31211853 456.8535108 C206.90660538 456.86460086 183.50116259 456.85308539 160.09566307 456.83214041 C138.71999333 456.81315735 117.3444189 456.81485584 95.96875 456.83398438 C71.9642179 456.85539351 47.95974539 456.86382779 23.9552002 456.85153532 C21.39721681 456.85026108 18.83923341 456.84900359 16.28125 456.84776306 C14.39321278 456.84683741 14.39321278 456.84683741 12.46703339 456.84589306 C3.58217594 456.8424343 -5.30264778 456.8482798 -14.1875 456.85768127 C-25.01003384 456.86888098 -35.83245159 456.86590398 -46.65497208 456.8445583 C-52.18048749 456.83402056 -57.70580911 456.82997235 -63.23132324 456.84315491 C-68.28439728 456.85502832 -73.3370969 456.84860006 -78.39013672 456.8272447 C-80.22318143 456.82275712 -82.05625745 456.82509284 -83.88928223 456.83474785 C-86.37163163 456.84682531 -88.85268068 456.83452628 -91.33496094 456.81586456 C-92.41485605 456.82991156 -92.41485605 456.82991156 -93.51656723 456.84424233 C-96.92867338 456.7925964 -98.65389795 456.53391109 -101.37945557 454.40603971 C-103.06994546 452.13453343 -103.48117364 451.10761284 -103.4375 448.3125 C-103.4478125 447.6525 -103.458125 446.9925 -103.46875 446.3125 C-102.63120047 443.15937235 -101.66274801 442.15653009 -98.9375 440.3125 C-95.50781274 439.82297903 -92.14280925 439.93667641 -88.6875 440.0625 C-87.75164062 440.08054687 -86.81578125 440.09859375 -85.8515625 440.1171875 C-83.54582985 440.16424327 -81.24219055 440.22996287 -78.9375 440.3125 C-78.92332031 439.631875 -78.90914062 438.95125 -78.89453125 438.25 C-77.71662323 414.30981541 -64.91341577 392.39176554 -48.03515625 375.98828125 C-41.60558074 370.22550779 -28.9436027 359.3125 -19.9375 359.3125 C-20.2675 358.6525 -20.5975 357.9925 -20.9375 357.3125 C-33.25279456 282.89452449 -12.42270769 201.34659469 29.0625 139.3125 C30.05834427 137.97605996 31.05781558 136.64230713 32.0625 135.3125 C23.97174989 131.85955831 15.81958731 128.68913351 7.5390625 125.72265625 C6.37075897 125.3012587 5.20245544 124.87986115 3.99874878 124.44569397 C1.51188787 123.54892808 -0.97530138 122.65315096 -3.46313477 121.75909424 C-9.32302298 119.65292428 -15.17931816 117.53679693 -21.03588104 115.42140198 C-22.98854927 114.71615777 -24.94132467 114.01121091 -26.894104 113.30627441 C-37.75466017 109.38454748 -48.60191334 105.42765951 -59.4375 101.4375 C-60.16781433 101.1693045 -60.89812866 100.90110901 -61.65057373 100.62478638 C-72.46486964 96.65204599 -83.21113468 92.5166237 -93.9375 88.3125 C-92.91262398 82.78054371 -91.27969206 79.95159691 -86.9375 76.3125 C-68.48264983 65.14483394 -46.5827253 64.54916603 -25.79077148 69.33544922 C-9.27741606 73.61385281 6.95391735 80.72672223 20.27099609 91.453125 C21.16901947 92.17532227 22.06704285 92.89751953 22.99227905 93.64160156 C23.67545197 94.19299805 24.35862488 94.74439453 25.0625 95.3125 C18.29494492 75.43657909 11.10741422 55.73827665 3.76660156 36.06713867 C2.38371784 32.36039577 1.00839369 28.65086535 -0.3671875 24.94140625 C-0.78281952 23.83293839 -1.19845154 22.72447052 -1.62667847 21.58241272 C-4.09950661 14.9038795 -6.19352587 8.21789222 -7.9375 1.3125 C-5.99296811 -0.63203189 -2.57770677 0.0489275 0 0 Z " fill="#E8A645" transform="translate(126.9375,31.6875)"/>
<path d="M0 0 C12.02162178 0 19.26879798 4.43627893 28.0625 12.3125 C28.81402344 12.96992187 29.56554687 13.62734375 30.33984375 14.3046875 C51.23129427 33.76421083 60.95211971 63.55008348 63.0625 91.3125 C63.9596875 90.67183594 64.856875 90.03117187 65.78125 89.37109375 C90.31399453 72.20815877 121.71030559 62.70959715 151.71875 67.99609375 C161.764652 70.456523 170.15294016 74.63283399 176.0625 83.3125 C176.4480305 84.9678716 176.79087842 86.63467087 177.0625 88.3125 C168.54500324 91.96161402 159.93932866 95.2489377 151.21484375 98.3671875 C149.90977377 98.83623159 148.6048089 99.30556821 147.29994202 99.775177 C143.89047106 101.00145554 140.47977007 102.22427329 137.06872559 103.44616699 C131.64932753 105.38822189 126.23189387 107.33575671 120.81425858 109.28272247 C119.50276052 109.75398211 118.19121453 110.22510838 116.8796196 110.69609833 C106.25307652 114.5123017 95.64656304 118.38000144 85.0625 122.3125 C85.67544922 122.48265625 86.28839844 122.6528125 86.91992188 122.828125 C99.99893215 126.50629094 112.28362905 130.47776803 124.0625 137.3125 C124.66884277 137.66038574 125.27518555 138.00827148 125.89990234 138.36669922 C134.98964814 143.66440383 142.54690034 149.9881656 150.0625 157.3125 C151.04476562 158.18455078 151.04476562 158.18455078 152.046875 159.07421875 C161.53720731 167.71564519 169.04082178 180.6778368 170.3984375 193.48046875 C170.59368604 199.525664 169.9618343 203.99705378 167.0625 209.3125 C160.88083713 207.68410894 155.75159366 204.37002905 150.3125 201.125 C148.14882451 199.84830222 145.98474834 198.57228329 143.8203125 197.296875 C142.70430664 196.63751953 141.58830078 195.97816406 140.43847656 195.29882812 C135.0412367 192.12324644 129.61486 188.9987344 124.1875 185.875 C122.00258624 184.61591652 119.81769051 183.35680177 117.6328125 182.09765625 C116.54774414 181.47262207 115.46267578 180.84758789 114.34472656 180.20361328 C108.91590061 177.07569853 103.48928636 173.94395157 98.0625 170.8125 C91.92538313 167.27129797 85.78812239 163.7303489 79.6491394 160.19238281 C77.25823403 158.81443062 74.86751328 157.43615828 72.47680664 156.05786133 C70.79266037 155.08709018 69.10824769 154.11678126 67.42382812 153.14648438 C66.40095703 152.55673828 65.37808594 151.96699219 64.32421875 151.359375 C63.42662842 150.84213867 62.52903809 150.32490234 61.60424805 149.79199219 C59.07671255 148.3207728 56.5667345 146.82298171 54.0625 145.3125 C53.89016846 145.96806885 53.71783691 146.6236377 53.5402832 147.29907227 C52.21241708 152.2681586 50.81127255 157.19490591 49.23046875 162.08984375 C26.51195604 232.45444328 26.03861918 306.70825425 44.265625 378.0625 C44.45310303 378.79654053 44.64058105 379.53058105 44.83374023 380.28686523 C45.33124669 382.20620341 45.84642212 384.12093883 46.36328125 386.03515625 C47.06659366 389.33168761 47.47936638 391.96351726 47.0625 395.3125 C42.34427971 401.07921369 34.99039591 404.07735316 28.0625 406.3125 C26.44601563 406.84810547 26.44601563 406.84810547 24.796875 407.39453125 C20.5769455 408.43185702 16.76373574 408.69681074 12.4375 408.6875 C11.25933716 408.68508301 11.25933716 408.68508301 10.05737305 408.68261719 C2.96708386 408.53530901 -3.41474899 407.16455307 -9.9375 404.3125 C-10.55544434 404.12453857 -11.17338867 403.93657715 -11.81005859 403.74291992 C-14.07071879 402.86018319 -15.32342672 402.14169148 -16.9375 400.3125 C-18.08416891 395.95572281 -18.09767751 391.61208081 -18.1875 387.125 C-18.30038924 384.49584731 -18.41898482 381.86693411 -18.54296875 379.23828125 C-18.57087997 378.57398102 -18.5987912 377.90968079 -18.62754822 377.22525024 C-18.95995331 369.72010671 -19.90862069 362.31708857 -20.88574219 354.87426758 C-30.57695976 280.03724591 -13.98479583 196.26101378 32.0625 135.3125 C23.97174989 131.85955831 15.81958731 128.68913351 7.5390625 125.72265625 C6.37075897 125.3012587 5.20245544 124.87986115 3.99874878 124.44569397 C1.51188787 123.54892808 -0.97530138 122.65315096 -3.46313477 121.75909424 C-9.32302298 119.65292428 -15.17931816 117.53679693 -21.03588104 115.42140198 C-22.98854927 114.71615777 -24.94132467 114.01121091 -26.894104 113.30627441 C-37.75466017 109.38454748 -48.60191334 105.42765951 -59.4375 101.4375 C-60.16781433 101.1693045 -60.89812866 100.90110901 -61.65057373 100.62478638 C-72.46486964 96.65204599 -83.21113468 92.5166237 -93.9375 88.3125 C-92.91262398 82.78054371 -91.27969206 79.95159691 -86.9375 76.3125 C-68.48264983 65.14483394 -46.5827253 64.54916603 -25.79077148 69.33544922 C-9.27741606 73.61385281 6.95391735 80.72672223 20.27099609 91.453125 C21.16901947 92.17532227 22.06704285 92.89751953 22.99227905 93.64160156 C23.67545197 94.19299805 24.35862488 94.74439453 25.0625 95.3125 C18.29494492 75.43657909 11.10741422 55.73827665 3.76660156 36.06713867 C2.38371784 32.36039577 1.00839369 28.65086535 -0.3671875 24.94140625 C-0.78281952 23.83293839 -1.19845154 22.72447052 -1.62667847 21.58241272 C-4.09950661 14.9038795 -6.19352587 8.21789222 -7.9375 1.3125 C-5.99296811 -0.63203189 -2.57770677 0.0489275 0 0 Z " fill="#5AA031" transform="translate(126.9375,31.6875)"/>
<path d="M0 0 C8.06344554 1.83657653 14.23486395 5.30556149 21 10 C19.7204279 16.39105428 17.94308067 22.48177875 15.9284668 28.67822266 C-6.75047968 98.61789475 -6.91373883 172.82693306 11.203125 243.75 C11.39060303 244.48404053 11.57808105 245.21808105 11.77124023 245.97436523 C12.26874669 247.89370341 12.78392212 249.80843883 13.30078125 251.72265625 C14.00409366 255.01918761 14.41686638 257.65101726 14 261 C9.28177971 266.76671369 1.92789591 269.76485316 -5 272 C-6.07765625 272.35707031 -7.1553125 272.71414063 -8.265625 273.08203125 C-12.4855545 274.11935702 -16.29876426 274.38431074 -20.625 274.375 C-21.80316284 274.37258301 -21.80316284 274.37258301 -23.00512695 274.37011719 C-30.09541614 274.22280901 -36.47724899 272.85205307 -43 270 C-43.61794434 269.81203857 -44.23588867 269.62407715 -44.87255859 269.43041992 C-47.13321879 268.54768319 -48.38592672 267.82919148 -50 266 C-51.14666891 261.64322281 -51.16017751 257.29958081 -51.25 252.8125 C-51.36288924 250.18334731 -51.48148482 247.55443411 -51.60546875 244.92578125 C-51.63337997 244.26148102 -51.6612912 243.59718079 -51.69004822 242.91275024 C-52.02245331 235.40760671 -52.97112069 228.00458857 -53.94824219 220.56176758 C-63.50974069 146.72645584 -47.76183566 61.8400854 -1.62109375 1.91015625 C-1.08613281 1.27980469 -0.55117187 0.64945313 0 0 Z " fill="#93693A" transform="translate(160,166)"/>
<path d="M0 0 C12.02162178 0 19.26879798 4.43627893 28.0625 12.3125 C28.81402344 12.96992187 29.56554687 13.62734375 30.33984375 14.3046875 C51.23129427 33.76421083 60.95211971 63.55008348 63.0625 91.3125 C63.9596875 90.67183594 64.856875 90.03117187 65.78125 89.37109375 C90.31399453 72.20815877 121.71030559 62.70959715 151.71875 67.99609375 C161.764652 70.456523 170.15294016 74.63283399 176.0625 83.3125 C176.4480305 84.9678716 176.79087842 86.63467087 177.0625 88.3125 C169.8353592 91.45419523 162.67087466 94.24207946 155.0625 96.3125 C154.7325 95.6525 154.4025 94.9925 154.0625 94.3125 C151.73296397 93.20542454 151.73296397 93.20542454 148.9375 92.25 C148.00679687 91.90839844 147.07609375 91.56679687 146.1171875 91.21484375 C121.52767708 83.95119042 92.11884842 91.28388284 70 102.75 C59.26487457 108.91377406 49.80551528 116.56948472 41.0625 125.3125 C40.67320312 124.8278125 40.28390625 124.343125 39.8828125 123.84375 C28.79395252 110.55755832 14.06180604 102.37745433 -1.9375 96.3125 C-2.88625 95.94253906 -3.835 95.57257813 -4.8125 95.19140625 C-16.86402754 90.62186873 -28.53551833 89.13439245 -41.375 89.125 C-42.25220703 89.11275391 -43.12941406 89.10050781 -44.03320312 89.08789062 C-53.15315031 89.06772862 -61.56820107 90.66044229 -69.9375 94.3125 C-70.2675 94.9725 -70.5975 95.6325 -70.9375 96.3125 C-78.80129677 94.12909819 -86.35425284 91.31964974 -93.9375 88.3125 C-93.06116545 82.79065003 -91.21137222 79.89433953 -86.9375 76.3125 C-68.48264983 65.14483394 -46.5827253 64.54916603 -25.79077148 69.33544922 C-9.27741606 73.61385281 6.95391735 80.72672223 20.27099609 91.453125 C21.16901947 92.17532227 22.06704285 92.89751953 22.99227905 93.64160156 C23.67545197 94.19299805 24.35862488 94.74439453 25.0625 95.3125 C18.29494492 75.43657909 11.10741422 55.73827665 3.76660156 36.06713867 C2.38371784 32.36039577 1.00839369 28.65086535 -0.3671875 24.94140625 C-0.78281952 23.83293839 -1.19845154 22.72447052 -1.62667847 21.58241272 C-4.09950661 14.9038795 -6.19352587 8.21789222 -7.9375 1.3125 C-5.99296811 -0.63203189 -2.57770677 0.0489275 0 0 Z " fill="#6BB347" transform="translate(126.9375,31.6875)"/>
<path d="M0 0 C2.375 1.5625 2.375 1.5625 4 4 C4.87480624 10.23299447 3.21817615 14.81358718 0.875 20.58203125 C-0.17013949 23.04159236 -0.17013949 23.04159236 0 26 C2.12304564 27.61709329 2.12304564 27.61709329 4.875 29.125 C10.91728039 32.81707377 15.95909618 37.0432515 21 42 C21.69996094 42.68707031 22.39992188 43.37414062 23.12109375 44.08203125 C39.21198401 60.98844422 43.53093503 81.83340856 43.27734375 104.453125 C43.05654749 112.18209258 41.67098432 118.71624215 39 126 C38.51154534 127.43830184 38.02463959 128.87713038 37.5390625 130.31640625 C37.02993027 131.77480085 36.51698069 133.23186907 36 134.6875 C35.7632959 135.35990723 35.5265918 136.03231445 35.28271484 136.72509766 C33.80993824 140.63419624 32.34728024 143.445163 29 146 C26.25208587 146.72991469 23.77988279 146.54686219 21 146 C18.5 144.5 18.5 144.5 17 142 C15.70022245 134.2013347 19.18754472 127.15167201 22 120 C20.47935206 119.54105193 18.95847052 119.08287786 17.4375 118.625 C16.59058594 118.36976563 15.74367188 118.11453125 14.87109375 117.8515625 C11.58727214 116.87758548 8.29463619 115.93667036 5 115 C4.41992188 116.55460937 4.41992188 116.55460937 3.828125 118.140625 C3.30264306 119.51063149 2.77657011 120.88041139 2.25 122.25 C1.87101562 123.27287109 1.87101562 123.27287109 1.484375 124.31640625 C-0.07206184 128.32423112 -1.49820622 131.30055897 -5 134 C-9.40768137 134.72125695 -11.25937488 134.52001338 -14.9375 131.9375 C-17.53987794 128.23108293 -17.32192291 126.4695964 -17 122 C-16.046875 118.60546875 -16.046875 118.60546875 -14.75 115.1875 C-14.29109375 113.95902344 -13.8321875 112.73054688 -13.359375 111.46484375 C-12.27741583 108.70709149 -11.15358093 105.97793523 -10 103.25 C-5.73352996 92.77460201 -2.72173396 81.17125055 -1 70 C-0.88914062 69.30132812 -0.77828125 68.60265625 -0.6640625 67.8828125 C1.01406523 54.77527426 2.60615421 38.32428958 -5.0625 26.9375 C-7.85320326 24.14679674 -9.7054332 23.76169124 -13.5625 23.5625 C-19.75620083 23.63389713 -23.36297652 26.10385433 -28 30 C-28.58265625 30.48339844 -29.1653125 30.96679688 -29.765625 31.46484375 C-46.3038754 46.65066713 -57.97257886 71.36757723 -64 92.625 C-67.58726813 104.58726813 -67.58726813 104.58726813 -72 109 C-75.99114942 109.32186689 -78.77126065 109.53560433 -82.4375 107.9375 C-84.7875285 105.02346465 -84.79174823 102.71878159 -85 99 C-84.30962008 96.0599039 -83.22576051 93.34465259 -82.0625 90.5625 C-81.77181641 89.83095703 -81.48113281 89.09941406 -81.18164062 88.34570312 C-80.46888433 86.55797011 -79.73643245 84.77811082 -79 83 C-79.86882812 82.87753906 -80.73765625 82.75507813 -81.6328125 82.62890625 C-84.90345303 82.01803256 -87.7679709 81.11210856 -90.875 79.9375 C-91.84179688 79.57527344 -92.80859375 79.21304688 -93.8046875 78.83984375 C-94.89136719 78.42412109 -94.89136719 78.42412109 -96 78 C-96.32613281 78.80824219 -96.65226562 79.61648438 -96.98828125 80.44921875 C-97.42527344 81.51785156 -97.86226563 82.58648437 -98.3125 83.6875 C-98.74175781 84.74324219 -99.17101562 85.79898438 -99.61328125 86.88671875 C-101.57488085 91.29064799 -102.94184926 94.29456617 -107 97 C-110.74276552 97.48818681 -112.52076055 97.2768939 -115.8125 95.375 C-118.6076223 92.34029579 -118.8349125 91.13177314 -119 87 C-118.10217808 83.32547557 -116.79150312 79.84076257 -115.4375 76.3125 C-115.06761963 75.32805908 -114.69773926 74.34361816 -114.31665039 73.3293457 C-105.60112021 50.58605192 -90.39181397 33.12667691 -68 23.125 C-51.887131 17.01395126 -34.95249621 16.53851343 -18 19 C-17.60167969 17.87980469 -17.20335937 16.75960937 -16.79296875 15.60546875 C-16.25825214 14.13265281 -15.72307156 12.66000526 -15.1875 11.1875 C-14.79594727 10.08051758 -14.79594727 10.08051758 -14.39648438 8.95117188 C-14.13544922 8.23896484 -13.87441406 7.52675781 -13.60546875 6.79296875 C-13.36981201 6.1383667 -13.13415527 5.48376465 -12.89135742 4.80932617 C-11.86310318 2.72211932 -10.78292894 1.48892805 -9 0 C-5.41563853 -1.19478716 -3.63093708 -0.96330984 0 0 Z " fill="#FE3D43" transform="translate(437,208)"/>
<path d="M0 0 C1.15997309 -0.00872064 1.15997309 -0.00872064 2.34337997 -0.01761746 C4.95026113 -0.03228528 7.55621071 -0.01830109 10.16308594 -0.00457001 C12.04460127 -0.00917625 13.92611302 -0.0155273 15.80761719 -0.02347898 C20.99007229 -0.04023344 26.17223415 -0.03189821 31.35469055 -0.01953411 C36.93895492 -0.0105109 42.52316766 -0.02443975 48.10742188 -0.0354538 C59.05178142 -0.05327284 69.99603146 -0.04938397 80.94039536 -0.03780323 C89.83234305 -0.02878248 98.72425998 -0.02753902 107.61621094 -0.0318985 C108.88007881 -0.03251143 110.14394669 -0.03312436 111.44611359 -0.03375587 C114.01335654 -0.03503472 116.58059948 -0.03633158 119.14784241 -0.03764623 C142.55335556 -0.0487363 165.95879835 -0.03722083 189.36429787 -0.01627585 C210.7399676 0.00270721 232.11554203 0.00100873 253.49121094 -0.01811981 C277.49574303 -0.03952895 301.50021554 -0.04796322 325.50476074 -0.03567076 C328.06274413 -0.03439651 330.62072753 -0.03313903 333.17871094 -0.0318985 C335.06674816 -0.03097285 335.06674816 -0.03097285 336.99292755 -0.03002849 C345.877785 -0.02656974 354.76260871 -0.03241524 363.64746094 -0.04181671 C374.46999478 -0.05301642 385.29241253 -0.05003942 396.11493301 -0.02869374 C401.64044843 -0.01815599 407.16577004 -0.01410779 412.69128418 -0.02729034 C417.74435822 -0.03916375 422.79705784 -0.03273549 427.85009766 -0.01138014 C429.68314237 -0.00689256 431.51621838 -0.00922828 433.34924316 -0.01888329 C435.83159257 -0.03096075 438.31264162 -0.01866171 440.79492188 0 C441.87481699 -0.014047 441.87481699 -0.014047 442.97652817 -0.02837777 C446.38863432 0.02326817 448.11385889 0.28195348 450.8394165 2.40982485 C452.52990639 4.68133113 452.94113458 5.70825173 452.89746094 8.50336456 C452.91292969 9.49336456 452.91292969 9.49336456 452.92871094 10.50336456 C452.13291759 13.49929247 450.83559595 14.59988702 448.39746094 16.50336456 C445.72532484 16.89556891 443.46522378 17.04146372 440.79492188 17.00672913 C439.63494879 17.01544977 439.63494879 17.01544977 438.4515419 17.02434659 C435.84466074 17.0390144 433.23871117 17.02503021 430.63183594 17.01129913 C428.7503206 17.01590538 426.86880886 17.02225642 424.98730469 17.03020811 C419.80484958 17.04696257 414.62268772 17.03862734 409.44023132 17.02626324 C403.85596696 17.01724003 398.27175422 17.03116888 392.6875 17.04218292 C381.74314045 17.06000196 370.79889042 17.05611309 359.85452652 17.04453236 C350.96257882 17.03551161 342.07066189 17.03426814 333.17871094 17.03862762 C331.91484306 17.03924056 330.65097519 17.03985349 329.34880829 17.04048499 C326.78156534 17.04176385 324.2143224 17.0430607 321.64707947 17.04437536 C298.24156632 17.05546543 274.83612353 17.04394995 251.43062401 17.02300497 C230.05495427 17.00402191 208.67937984 17.0057204 187.30371094 17.02484894 C163.29917884 17.04625807 139.29470633 17.05469235 115.29016113 17.04239988 C112.73217774 17.04112564 110.17419434 17.03986816 107.61621094 17.03862762 C105.72817371 17.03770197 105.72817371 17.03770197 103.80199432 17.03675762 C94.91713688 17.03329886 86.03231316 17.03914437 77.14746094 17.04854584 C66.32492709 17.05974554 55.50250934 17.05676854 44.67998886 17.03542286 C39.15447344 17.02488512 33.62915183 17.02083692 28.1036377 17.03401947 C23.05056366 17.04589288 17.99786403 17.03946462 12.94482422 17.01810926 C11.1117795 17.01362168 9.27870349 17.0159574 7.44567871 17.02561241 C4.96332931 17.03768987 2.48228026 17.02539084 0 17.00672913 C-1.07989511 17.02077612 -1.07989511 17.02077612 -2.18160629 17.0351069 C-5.59371244 16.98346096 -7.31893702 16.72477565 -10.04449463 14.59690428 C-11.73498452 12.32539799 -12.1462127 11.2984774 -12.10253906 8.50336456 C-12.11800781 7.51336456 -12.11800781 7.51336456 -12.13378906 6.50336456 C-10.48209443 0.28522005 -5.57175915 -0.072476 0 0 Z " fill="#E3913A" transform="translate(35.6025390625,471.4966354370117)"/>
<path d="M0 0 C1.60746056 0.42523816 3.21089836 0.86570126 4.8125 1.3125 C5.70582031 1.55613281 6.59914062 1.79976562 7.51953125 2.05078125 C10.09271464 3.03547978 11.15573368 4.02450253 13 6 C12.65332275 6.57741943 12.30664551 7.15483887 11.94946289 7.74975586 C-3.86470898 34.1467956 -16.99172989 60.45800887 -26 90 C-26.26264648 90.84643066 -26.52529297 91.69286133 -26.79589844 92.56494141 C-38.19900851 129.79771675 -42.00052071 170.12358456 -37.63671875 208.828125 C-36.58037807 218.44099312 -35.99991755 228.10419567 -35.31918335 237.7494812 C-34.48535026 249.53747993 -33.39322571 261.26454863 -32 273 C-46.06865379 269.58953096 -46.06865379 269.58953096 -50 266 C-51.5022805 261.61972426 -51.43779801 257.34886122 -51.4375 252.75 C-51.52278439 250.13001097 -51.61404122 247.51021028 -51.7109375 244.890625 C-51.74928711 243.57126953 -51.78763672 242.25191406 -51.82714844 240.89257812 C-52.08654305 235.0510701 -52.79431644 229.29332852 -53.5625 223.5 C-63.55051819 147.55825212 -47.1546447 68.77178005 -4 5 C-2.69792559 3.3087999 -1.38106822 1.62733098 0 0 Z " fill="#9F794F" transform="translate(160,166)"/>
<path d="M0 0 C17.3515157 4.4114023 31.11580923 18.53535969 40.0625 33.51953125 C47.17637488 46.29868956 50.57476065 59.19968736 50.4375 73.8125 C50.42992676 74.95251465 50.42235352 76.0925293 50.41455078 77.26708984 C50.24172652 86.13410957 49.06722831 93.63568722 46 102 C45.51154534 103.43830184 45.02463959 104.87713038 44.5390625 106.31640625 C44.02993027 107.77480085 43.51698069 109.23186907 43 110.6875 C42.7632959 111.35990723 42.5265918 112.03231445 42.28271484 112.72509766 C40.80993824 116.63419624 39.34728024 119.445163 36 122 C33.25208587 122.72991469 30.77988279 122.54686219 28 122 C25.5 120.5 25.5 120.5 24 118 C22.70022245 110.2013347 26.18754472 103.15167201 29 96 C27.47935206 95.54105193 25.95847052 95.08287786 24.4375 94.625 C23.59058594 94.36976563 22.74367188 94.11453125 21.87109375 93.8515625 C18.58727214 92.87758548 15.29463619 91.93667036 12 91 C11.41992188 92.55460937 11.41992188 92.55460937 10.828125 94.140625 C10.30264306 95.51063149 9.77657011 96.88041139 9.25 98.25 C8.99734375 98.93191406 8.7446875 99.61382812 8.484375 100.31640625 C6.92793816 104.32423112 5.50179378 107.30055897 2 110 C-2.40768137 110.72125695 -4.25937488 110.52001338 -7.9375 107.9375 C-10.53987794 104.23108293 -10.32192291 102.4695964 -10 98 C-9.046875 94.60546875 -9.046875 94.60546875 -7.75 91.1875 C-7.29109375 89.95902344 -6.8321875 88.73054688 -6.359375 87.46484375 C-5.27741583 84.70709149 -4.15358093 81.97793523 -3 79.25 C1.26647004 68.77460201 4.27826604 57.17125055 6 46 C6.11085938 45.30132812 6.22171875 44.60265625 6.3359375 43.8828125 C8.22467264 29.13025967 9.42569936 12.35091641 0 0 Z " fill="#FE3D42" transform="translate(430,232)"/>
<path d="M0 0 C14.98931029 -0.71948689 23.71308229 1.89069008 35 12 C35.75152344 12.65742187 36.50304687 13.31484375 37.27734375 13.9921875 C55.19555403 30.68226034 66.25852756 56.9550021 69 81 C69.12503906 82.0828125 69.25007813 83.165625 69.37890625 84.28125 C69.86721363 92.84221349 69.86721363 92.84221349 67.49609375 96.0078125 C66.13004876 97.11454954 64.72733541 98.17709899 63.296875 99.19921875 C56.70707011 104.36571544 52.40568464 112.4791131 49 120 C46.48326112 116.22489169 44.34211411 112.26878215 42.14453125 108.30078125 C40.40019612 105.61596671 38.8863189 103.83840989 36.68310547 101.60400391 C32.0888678 96.38731802 30.15261055 90.53624506 27.92578125 84.03515625 C27.47627478 82.76685656 27.02508302 81.49915307 26.57232666 80.23200989 C25.37703659 76.87308364 24.20383707 73.50685118 23.03520584 70.13857269 C21.82710487 66.66813522 20.59940707 63.20465422 19.37280273 59.74072266 C17.9167622 55.62555845 16.46232682 51.50987199 15.01734924 47.39080811 C12.35954138 39.81677218 9.65757729 32.26182053 6.859375 24.73828125 C6.56600754 23.94730545 6.27264008 23.15632965 5.97038269 22.34138489 C4.91817543 19.50781572 3.86483921 16.67480548 2.79605103 13.84744263 C2.10747137 12.02364092 1.43027849 10.19555158 0.75390625 8.3671875 C0.38595947 7.38862793 0.0180127 6.41006836 -0.36108398 5.40185547 C-1 3 -1 3 0 0 Z " fill="#59A030" transform="translate(120,32)"/>
<path d="M0 0 C5.19133177 2.98225442 7.38221245 6.9339193 9.06640625 12.56640625 C10.20397073 17.28969003 10.30363094 21.84765749 10.25 26.6875 C10.24395752 27.56744629 10.23791504 28.44739258 10.23168945 29.35400391 C10.12548664 36.38141186 9.40667449 43.1081797 8 50 C7.80535156 51.05574219 7.61070312 52.11148438 7.41015625 53.19921875 C5.97530948 60.5092961 4.06400245 67.65767234 2 74.8125 C1.75088867 75.70332275 1.50177734 76.59414551 1.24511719 77.51196289 C0.87628418 78.75320923 0.87628418 78.75320923 0.5 80.01953125 C0.2834375 80.76307861 0.066875 81.50662598 -0.15625 82.27270508 C-0.4346875 82.8427124 -0.713125 83.41271973 -1 84 C-4.8761282 85.29204273 -6.13677082 84.42555686 -9.8984375 82.9375 C-11.09122314 82.4731958 -12.28400879 82.0088916 -13.51293945 81.53051758 C-14.14382477 81.28040924 -14.77471008 81.0303009 -15.42471313 80.77261353 C-18.69323029 79.47777808 -21.97334373 78.21316324 -25.25390625 76.94921875 C-26.23749367 76.56947151 -26.23749367 76.56947151 -27.24095154 76.18205261 C-36.05168534 72.80032397 -45.01414213 69.87743864 -54 67 C-53.40882896 62.1893457 -51.9736181 58.07714602 -50 53.6875 C-49.69312256 52.99889893 -49.38624512 52.31029785 -49.07006836 51.60083008 C-24.43205622 -2.77461837 -24.43205622 -2.77461837 0 0 Z " fill="#E5F2F7" transform="translate(428,231)"/>
<path d="M0 0 C65.34 0 130.68 0 198 0 C193 15 193 15 192 16 C189.5588998 16.09769053 187.14612708 16.12996385 184.70457458 16.12025452 C183.93192876 16.12110894 183.15928294 16.12196337 182.36322361 16.12284368 C179.75441446 16.12450082 177.14566854 16.11897331 174.53686523 16.11352539 C172.67467246 16.11324354 170.81247957 16.1134012 168.95028687 16.1139679 C163.87818414 16.11425597 158.80610485 16.10835771 153.7340076 16.10139394 C148.43953999 16.09516197 143.1450719 16.09455673 137.8506012 16.09336853 C127.81728576 16.09025475 117.78398115 16.08204073 107.75067049 16.07201904 C96.33127715 16.06085935 84.91188331 16.05534782 73.49248588 16.05032361 C49.99498457 16.03985815 26.49749289 16.02225781 3 16 C2.49411853 14.08487728 1.99551609 12.16783078 1.5 10.25 C1.2215625 9.18265625 0.943125 8.1153125 0.65625 7.015625 C0 4 0 4 0 0 Z " fill="#F9B859" transform="translate(165,384)"/>
<path d="M0 0 C1.62890625 1.1015625 1.62890625 1.1015625 3.81640625 3.1015625 C4.39390625 2.8128125 4.97140625 2.5240625 5.56640625 2.2265625 C6.68015625 1.6696875 6.68015625 1.6696875 7.81640625 1.1015625 C8.67878906 0.58335938 8.67878906 0.58335938 9.55859375 0.0546875 C14.32412665 -1.95705995 19.75737437 -1.4087508 24.81640625 -0.8984375 C28.37890625 0.7890625 28.37890625 0.7890625 30.81640625 3.1015625 C31.55890625 3.8028125 32.30140625 4.5040625 33.06640625 5.2265625 C35.83551949 9.77581997 37.53178039 14.76808035 36.38616943 20.10636902 C34.57305975 26.17753808 31.95719026 29.78319574 27.3984375 34.10546875 C26.78119308 34.71422348 26.16394867 35.32297821 25.52799988 35.95018005 C23.575395 37.86950479 21.60289652 39.76676483 19.62890625 41.6640625 C18.29224079 42.97059589 16.95693982 44.27852679 15.62304688 45.58789062 C12.36971038 48.77548024 9.09837201 51.94346847 5.81640625 55.1015625 C1.73906015 53.46707482 -1.07930791 50.56354607 -4.15625 47.53515625 C-4.72057236 46.98223404 -5.28489471 46.42931183 -5.86631775 45.8596344 C-7.05666104 44.68814868 -8.24414837 43.51375488 -9.42895508 42.33666992 C-11.22971906 40.55526119 -13.05067037 38.79636473 -14.87304688 37.03710938 C-27.01837826 25.11836175 -27.01837826 25.11836175 -27.25 15.28125 C-25.79553336 8.62903823 -23.21842534 3.71543166 -17.38671875 -0.0625 C-12.25731331 -2.00876377 -5.08283271 -2.09132652 0 0 Z " fill="#FFD11E" transform="translate(403.18359375,76.8984375)"/>
<path d="M0 0 C0.72388916 0.21857666 1.44777832 0.43715332 2.19360352 0.66235352 C10.21984716 3.21651432 17.58627833 6.9302774 24.9375 11 C26.37609375 11.79277344 26.37609375 11.79277344 27.84375 12.6015625 C46.42994398 23.32877939 64.52042804 39.96626414 70.9375 61 C70.98040423 62.66611434 70.98911035 64.33413261 70.9375 66 C63.03214461 62.15618294 55.37241929 58.04462732 47.8125 53.5625 C45.70347714 52.32231764 43.59408939 51.08275562 41.484375 49.84375 C40.40607422 49.20953125 39.32777344 48.5753125 38.21679688 47.921875 C32.84755132 44.77515813 27.45533321 41.66856334 22.0625 38.5625 C20.99281982 37.94568359 19.92313965 37.32886719 18.82104492 36.69335938 C13.78971048 33.79270829 8.75651067 30.89534865 3.72012329 28.003479 C-17.56410358 15.78105977 -17.56410358 15.78105977 -24.9375 11.3125 C-26.32582031 10.47138672 -26.32582031 10.47138672 -27.7421875 9.61328125 C-30.13753754 7.94782743 -32.07120999 6.12558631 -34.0625 4 C-31.42252853 2.98159539 -28.77726721 1.98544489 -26.125 1 C-25.38958984 0.71382812 -24.65417969 0.42765625 -23.89648438 0.1328125 C-15.57245105 -2.9205447 -8.39513653 -2.58999962 0 0 Z " fill="#4D9325" transform="translate(203.0625,164)"/>
<path d="M0 0 C2.375 1.5625 2.375 1.5625 4 4 C5.29977755 11.7986653 1.81245528 18.84832799 -1 26 C-2.11375 25.67 -3.2275 25.34 -4.375 25 C-10.16703604 23.54424763 -16.29258842 23.09752947 -22 25 C-23.73000799 24.96844098 -25.45945309 24.90068998 -27.1875 24.8125 C-47.70386778 24.76318181 -65.70252546 35.21307043 -80.1640625 49.07421875 C-88.19852727 57.46542616 -93.79773944 67.89048152 -97 79 C-97.76798381 81.44506508 -98.56155637 83.88218072 -99.375 86.3125 C-99.75398438 87.48425781 -100.13296875 88.65601563 -100.5234375 89.86328125 C-102.18869272 93.40084723 -103.72913778 94.90887601 -107 97 C-110.81760338 97.63626723 -112.45414218 97.31538452 -115.8125 95.375 C-118.6076223 92.34029579 -118.8349125 91.13177314 -119 87 C-118.10217808 83.32547557 -116.79150312 79.84076257 -115.4375 76.3125 C-115.06761963 75.32805908 -114.69773926 74.34361816 -114.31665039 73.3293457 C-105.60112021 50.58605192 -90.39181397 33.12667691 -68 23.125 C-51.887131 17.01395126 -34.95249621 16.53851343 -18 19 C-17.60167969 17.87980469 -17.20335937 16.75960937 -16.79296875 15.60546875 C-16.25825214 14.13265281 -15.72307156 12.66000526 -15.1875 11.1875 C-14.79594727 10.08051758 -14.79594727 10.08051758 -14.39648438 8.95117188 C-14.13544922 8.23896484 -13.87441406 7.52675781 -13.60546875 6.79296875 C-13.36981201 6.1383667 -13.13415527 5.48376465 -12.89135742 4.80932617 C-11.86310318 2.72211932 -10.78292894 1.48892805 -9 0 C-5.41563853 -1.19478716 -3.63093708 -0.96330984 0 0 Z " fill="#FE5968" transform="translate(437,208)"/>
<path d="M0 0 C6.23778388 0.82506972 11.25118476 2.55872229 17 5 C14.75297849 12.88064842 12.07826784 20.5740476 9.2890625 28.27734375 C8.83439729 29.53703556 8.37984016 30.79676638 7.92538452 32.05653381 C6.97752614 34.68184643 6.02754667 37.30637967 5.07617188 39.93041992 C3.86891312 43.2611216 2.66827403 46.59416614 1.46940041 49.92789364 C0.53392062 52.52614646 -0.40577494 55.12286025 -1.34660721 57.71917915 C-2.00331407 59.5342254 -2.65606283 61.35070223 -3.3086853 63.16722107 C-5.58649553 69.42878158 -8.06816774 75.5068236 -10.88085938 81.54655457 C-12.39272535 84.86095546 -13.65300093 88.21129171 -14.89453125 91.63671875 C-15.13161301 92.28703568 -15.36869476 92.9373526 -15.61296082 93.6073761 C-16.35025037 95.63262011 -17.08150476 97.65997685 -17.8125 99.6875 C-18.31925801 101.08282888 -18.82641704 102.47801219 -19.33398438 103.87304688 C-20.56134966 107.24679975 -21.78048068 110.62336245 -23 114 C-28.61 114 -34.22 114 -40 114 C-38.1216938 106.81519069 -35.96994763 99.88993544 -33.375 92.9375 C-30.43665427 85.01866433 -27.62276289 77.06495741 -24.88671875 69.07421875 C-19.90653203 54.61232229 -14.68480275 40.24168045 -9.4375 25.875 C-8.51454489 23.34390631 -7.5922272 20.81258052 -6.66992188 18.28125 C-4.44880223 12.18670042 -2.22537682 6.09299631 0 0 Z " fill="#A1723D" transform="translate(391,304)"/>
<path d="M0 0 C0.79149808 3.98575819 1.4183119 7.97856576 2 12 C2.29197266 13.54300781 2.29197266 13.54300781 2.58984375 15.1171875 C2.97997558 18.49248538 3.01615021 20.74390128 2 24 C-1.43149549 27.52998252 -5.25405548 30.12498665 -9.33740234 32.84277344 C-25.30256077 43.95508635 -33.42405757 63.46415353 -40 81 C-46.27 81 -52.54 81 -59 81 C-58.06642079 56.10455446 -45.7423667 33.82415666 -28.09765625 16.67578125 C-21.66808074 10.91300779 -9.0061027 0 0 0 Z " fill="#F9B859" transform="translate(107,391)"/>
<path d="M0 0 C17.30138119 4.67968418 29.3638644 19.99153539 38 35 C45.25962887 48.29421491 54.83655945 67.46646016 52 83 C50.45426742 85.79203006 48.72359909 88.18975833 46.7265625 90.67578125 C44.9669636 93.04447208 43.97185007 95.22679146 43 98 C40.48326112 94.22489169 38.34211411 90.26878215 36.14453125 86.30078125 C34.40007879 83.61578611 32.90610429 81.87017532 30.69848633 79.64575195 C25.96921231 74.2765807 23.97098166 68.03855704 21.6796875 61.3671875 C21.21003365 60.04395305 20.73873718 58.7213006 20.26589966 57.39920044 C19.03178398 53.93485816 17.81972438 50.46320463 16.61242676 46.98944092 C15.39410238 43.49611104 14.15526375 40.01008318 12.91796875 36.5234375 C11.09279935 31.37350394 9.27892824 26.21981378 7.47607422 21.06201172 C5.01664373 14.02954508 2.51418908 7.01304386 0 0 Z " fill="#4D9325" transform="translate(126,54)"/>
<path d="M0 0 C17.3515157 4.4114023 31.11580923 18.53535969 40.0625 33.51953125 C47.17637488 46.29868956 50.57476065 59.19968736 50.4375 73.8125 C50.42992676 74.95251465 50.42235352 76.0925293 50.41455078 77.26708984 C50.24172652 86.13410957 49.06722831 93.63568722 46 102 C45.51154534 103.43830184 45.02463959 104.87713038 44.5390625 106.31640625 C44.02993027 107.77480085 43.51698069 109.23186907 43 110.6875 C42.7632959 111.35990723 42.5265918 112.03231445 42.28271484 112.72509766 C40.80993824 116.63419624 39.34728024 119.445163 36 122 C33.25208587 122.72991469 30.77988279 122.54686219 28 122 C25.5 120.5 25.5 120.5 24 118 C22.51549431 109.09296584 27.01872886 100.21161159 30.6875 92.25 C37.27475774 75.93869512 35.12742627 54.71469824 28.64135742 38.62573242 C23.41799779 26.53517853 15.72526037 15.14844511 5.33984375 6.8828125 C2.79521883 4.83521782 1.51413621 2.86888966 0 0 Z " fill="#FA1A2E" transform="translate(430,232)"/>
<path d="M0 0 C1.13384628 -0.00241196 2.26769257 -0.00482391 3.43589783 -0.00730896 C5.82717393 -0.00633156 8.21847296 0.00703609 10.60961914 0.03198242 C14.26852241 0.06632346 17.92501432 0.05262519 21.58398438 0.03320312 C23.91016652 0.04010081 26.23634245 0.04977249 28.5625 0.0625 C29.65530777 0.05754013 30.74811554 0.05258026 31.8740387 0.04747009 C39.40791233 0.16428672 39.40791233 0.16428672 43.37670898 2.44946289 C45.97169241 5.5262881 46.28493613 7.63364046 46.21484375 11.62890625 C44.9921875 14.31005859 44.9921875 14.31005859 42.21484375 16.62890625 C38.05761487 17.40491555 33.93336883 17.3287957 29.71484375 17.29296875 C27.8730957 17.3001442 27.8730957 17.3001442 25.99414062 17.3074646 C23.39842447 17.31086678 20.80266565 17.30164244 18.20703125 17.28076172 C14.22949861 17.25400483 10.25478841 17.28050323 6.27734375 17.3125 C3.75650417 17.30919596 1.23566636 17.30278987 -1.28515625 17.29296875 C-2.47689453 17.3030899 -3.66863281 17.31321106 -4.89648438 17.32363892 C-13.11199891 17.20677155 -13.11199891 17.20677155 -16.52734375 14.27490234 C-18.10179293 10.96281379 -18.53841735 9.24455953 -17.78515625 5.62890625 C-12.5947069 -0.34085349 -7.5854482 -0.09219928 0 0 Z " fill="#F9B859" transform="translate(345.78515625,417.37109375)"/>
<path d="M0 0 C25.64892508 3.84228313 45.00052056 15.31117879 63 34 C62.505 34.99 62.505 34.99 62 36 C61.34515625 35.56429687 60.6903125 35.12859375 60.015625 34.6796875 C39.43219195 21.24812526 19.18651315 17.10070359 -5 16 C-4.43267729 11.92722012 -3.52536141 8.41537885 -1.9375 4.625 C-1.57527344 3.75101562 -1.21304687 2.87703125 -0.83984375 1.9765625 C-0.56269531 1.32429688 -0.28554688 0.67203125 0 0 Z " fill="#F9B859" transform="translate(380,384)"/>
<path d="M0 0 C2.5 2.125 2.5 2.125 4 5 C4.27181588 9.80208058 2.94175984 12.43760932 -0.0625 16 C-1.35609894 17.35167889 -2.66935835 18.68477119 -4 20 C-4.97066406 21.0209375 -4.97066406 21.0209375 -5.9609375 22.0625 C-9.177265 25.21526371 -11.62656151 27.43874357 -16.25 27.6875 C-20 27 -20 27 -22.5 25.5 C-24.18749219 22.68751302 -24.74909769 20.4357556 -24.578125 17.14453125 C-23.4121746 12.8194855 -20.12601963 10.0471104 -17 7 C-16.36707031 6.33226562 -15.73414063 5.66453125 -15.08203125 4.9765625 C-10.15472911 -0.1713651 -7.3578453 -1.80719007 0 0 Z " fill="#FFD21E" transform="translate(373,136)"/>
<path d="M0 0 C2.5 1.5 2.5 1.5 4 4 C4.76636559 8.18017597 4.99987848 10.45607 2.671875 14.05078125 C0.87008036 16.1407007 -1.03384846 18.06469005 -3 20 C-3.57492187 20.66773437 -4.14984375 21.33546875 -4.7421875 22.0234375 C-7.63455952 25.28901881 -9.78798576 27.36183662 -14.1875 28.0625 C-19.55537849 27.97450199 -19.55537849 27.97450199 -22 26 C-24.14136713 23.34878356 -23.99616609 21.73956823 -23.9453125 18.28515625 C-23.22747831 13.08130149 -20.32089155 10.48323926 -16.5625 7.0625 C-15.96373047 6.48693359 -15.36496094 5.91136719 -14.74804688 5.31835938 C-10.01413803 0.81770024 -6.81513507 -0.9293366 0 0 Z " fill="#FFD21E" transform="translate(463,45)"/>
<path d="M0 0 C4.33467757 1.16854696 7.07748269 4.46219917 10.14453125 7.578125 C10.81226563 8.15304688 11.48 8.72796875 12.16796875 9.3203125 C15.43355006 12.21268452 17.50636787 14.36611076 18.20703125 18.765625 C18.11903324 24.13350349 18.11903324 24.13350349 16.14453125 26.578125 C13.49331481 28.71949213 11.88409948 28.57429109 8.4296875 28.5234375 C3.22583274 27.80560331 0.62777051 24.89901655 -2.79296875 21.140625 C-3.36853516 20.54185547 -3.94410156 19.94308594 -4.53710938 19.32617188 C-8.60680508 15.04556144 -10.24971286 12.79033055 -10.125 6.5546875 C-9.85546875 4.578125 -9.85546875 4.578125 -8.35546875 2.078125 C-5.54298177 0.39063281 -3.29122435 -0.17097269 0 0 Z " fill="#FFD21E" transform="translate(358.85546875,44.421875)"/>
<path d="M0 0 C4.13365488 1.4346214 6.97367983 4.63752544 9.9921875 7.69140625 C10.6728125 8.33851563 11.3534375 8.985625 12.0546875 9.65234375 C15.20745121 12.86867125 17.43093107 15.31796776 17.6796875 19.94140625 C16.9921875 23.69140625 16.9921875 23.69140625 15.4921875 26.19140625 C12.67921147 27.87919187 10.42872046 28.44274569 7.13671875 28.265625 C2.78249172 27.09973907 0.01879697 23.87477239 -3.0078125 20.69140625 C-3.67554688 20.03140625 -4.34328125 19.37140625 -5.03125 18.69140625 C-8.0721321 15.51399475 -9.83164101 13.23846508 -11.1953125 9.00390625 C-10.96489142 4.93313389 -9.89653209 3.49759099 -7.0078125 0.69140625 C-4.53659171 -0.54420414 -2.69623949 -0.44191477 0 0 Z " fill="#FFD21F" transform="translate(450.0078125,135.30859375)"/>
<path d="M0 0 C0.66 -0.0103125 1.32 -0.020625 2 -0.03125 C4.91796104 0.7438334 6.0931088 2.19104167 8 4.5 C8.51757812 7.09375 8.51757812 7.09375 8.53125 10 C8.53640625 11.051875 8.5415625 12.10375 8.546875 13.1875 C8.53140625 14.280625 8.5159375 15.37375 8.5 16.5 C8.51546875 17.593125 8.5309375 18.68625 8.546875 19.8125 C8.54171875 20.864375 8.5365625 21.91625 8.53125 23 C8.52673828 23.9590625 8.52222656 24.918125 8.51757812 25.90625 C7.857725 29.21298564 6.58886445 30.40908706 4 32.5 C2 33.03125 2 33.03125 0 33 C-0.99 33.01546875 -0.99 33.01546875 -2 33.03125 C-4.91796104 32.2561666 -6.0931088 30.80895833 -8 28.5 C-8.51757812 25.90625 -8.51757812 25.90625 -8.53125 23 C-8.53640625 21.948125 -8.5415625 20.89625 -8.546875 19.8125 C-8.53140625 18.719375 -8.5159375 17.62625 -8.5 16.5 C-8.51546875 15.406875 -8.5309375 14.31375 -8.546875 13.1875 C-8.53914063 11.6096875 -8.53914063 11.6096875 -8.53125 10 C-8.52673828 9.0409375 -8.52222656 8.081875 -8.51757812 7.09375 C-7.60329874 2.51200272 -4.67433964 -0.07303656 0 0 Z " fill="#FFD21F" transform="translate(408,151.5)"/>
<path d="M0 0 C1.051875 -0.00515625 2.10375 -0.0103125 3.1875 -0.015625 C4.280625 -0.00015625 5.37375 0.0153125 6.5 0.03125 C8.1396875 0.00804688 8.1396875 0.00804688 9.8125 -0.015625 C10.864375 -0.01046875 11.91625 -0.0053125 13 0 C14.43859375 0.00676758 14.43859375 0.00676758 15.90625 0.01367188 C19.21298564 0.673525 20.40908706 1.94238555 22.5 4.53125 C23.03125 6.53125 23.03125 6.53125 23 8.53125 C23.0103125 9.19125 23.020625 9.85125 23.03125 10.53125 C22.2561666 13.44921104 20.80895833 14.6243588 18.5 16.53125 C15.90625 17.04882812 15.90625 17.04882812 13 17.0625 C11.948125 17.06765625 10.89625 17.0728125 9.8125 17.078125 C8.719375 17.06265625 7.62625 17.0471875 6.5 17.03125 C4.8603125 17.05445313 4.8603125 17.05445313 3.1875 17.078125 C2.135625 17.07296875 1.08375 17.0678125 0 17.0625 C-0.9590625 17.05798828 -1.918125 17.05347656 -2.90625 17.04882812 C-6.21298564 16.388975 -7.40908706 15.12011445 -9.5 12.53125 C-10.03125 10.53125 -10.03125 10.53125 -10 8.53125 C-10.01546875 7.54125 -10.01546875 7.54125 -10.03125 6.53125 C-8.65240655 1.34030994 -4.94094259 0.02324368 0 0 Z " fill="#FFD21F" transform="translate(465.5,95.46875)"/>
<path d="M0 0 C1.051875 -0.00515625 2.10375 -0.0103125 3.1875 -0.015625 C4.280625 -0.00015625 5.37375 0.0153125 6.5 0.03125 C8.1396875 0.00804688 8.1396875 0.00804688 9.8125 -0.015625 C10.864375 -0.01046875 11.91625 -0.0053125 13 0 C14.43859375 0.00676758 14.43859375 0.00676758 15.90625 0.01367188 C19.21298564 0.673525 20.40908706 1.94238555 22.5 4.53125 C23.03125 6.53125 23.03125 6.53125 23 8.53125 C23.0103125 9.19125 23.020625 9.85125 23.03125 10.53125 C22.2561666 13.44921104 20.80895833 14.6243588 18.5 16.53125 C15.90625 17.04882812 15.90625 17.04882812 13 17.0625 C11.948125 17.06765625 10.89625 17.0728125 9.8125 17.078125 C8.719375 17.06265625 7.62625 17.0471875 6.5 17.03125 C4.8603125 17.05445313 4.8603125 17.05445313 3.1875 17.078125 C2.135625 17.07296875 1.08375 17.0678125 0 17.0625 C-0.9590625 17.05798828 -1.918125 17.05347656 -2.90625 17.04882812 C-6.21298564 16.388975 -7.40908706 15.12011445 -9.5 12.53125 C-10.03125 10.53125 -10.03125 10.53125 -10 8.53125 C-10.01546875 7.54125 -10.01546875 7.54125 -10.03125 6.53125 C-8.65240655 1.34030994 -4.94094259 0.02324368 0 0 Z " fill="#FFD21F" transform="translate(337.5,95.46875)"/>
<path d="M0 0 C0.66 -0.0103125 1.32 -0.020625 2 -0.03125 C4.91796104 0.7438334 6.0931088 2.19104167 8 4.5 C8.51757812 7.09375 8.51757812 7.09375 8.53125 10 C8.53640625 11.051875 8.5415625 12.10375 8.546875 13.1875 C8.53140625 14.280625 8.5159375 15.37375 8.5 16.5 C8.51546875 17.593125 8.5309375 18.68625 8.546875 19.8125 C8.54171875 20.864375 8.5365625 21.91625 8.53125 23 C8.52673828 23.9590625 8.52222656 24.918125 8.51757812 25.90625 C7.857725 29.21298564 6.58886445 30.40908706 4 32.5 C2 33.03125 2 33.03125 0 33 C-0.99 33.01546875 -0.99 33.01546875 -2 33.03125 C-4.91796104 32.2561666 -6.0931088 30.80895833 -8 28.5 C-8.51757812 25.90625 -8.51757812 25.90625 -8.53125 23 C-8.53640625 21.948125 -8.5415625 20.89625 -8.546875 19.8125 C-8.53140625 18.719375 -8.5159375 17.62625 -8.5 16.5 C-8.51546875 15.406875 -8.5309375 14.31375 -8.546875 13.1875 C-8.53914063 11.6096875 -8.53914063 11.6096875 -8.53125 10 C-8.52673828 9.0409375 -8.52222656 8.081875 -8.51757812 7.09375 C-7.60329874 2.51200272 -4.67433964 -0.07303656 0 0 Z " fill="#FFD21F" transform="translate(408,23.5)"/>
<path d="M0 0 C2.375 1.5625 2.375 1.5625 4 4 C5.29977755 11.7986653 1.81245528 18.84832799 -1 26 C-6.36095277 24.41078475 -11.70843973 22.81027062 -17 21 C-16.54116506 14.27042095 -14.37883941 7.83617716 -11 2 C-7.01132331 -0.99621856 -4.81233678 -1.53585217 0 0 Z " fill="#A2713D" transform="translate(437,208)"/>
<path d="M0 0 C6.18160604 0.53753096 11.326858 2.54582388 17 5 C13.92482916 15.55808656 13.92482916 15.55808656 12 20 C6.63904723 18.41078475 1.29156027 16.81027062 -4 15 C-3.32584613 9.7415998 -1.75734451 4.97361654 0 0 Z " fill="#936A3A" transform="translate(391,304)"/>
</svg>
