<svg width="250" height="24" viewBox="0 0 250 24" fill="none" xmlns="http://www.w3.org/2000/svg">
<path d="M14.6562 23.744L10.0802 17.184C9.88819 17.2053 9.60019 17.216 9.21619 17.216H4.16019V23.744H0.000187635V1.344H9.21619C11.1575 1.344 12.8429 1.664 14.2722 2.304C15.7229 2.944 16.8322 3.86134 17.6002 5.056C18.3682 6.25067 18.7522 7.66934 18.7522 9.312C18.7522 10.9973 18.3362 12.448 17.5042 13.664C16.6935 14.88 15.5202 15.7867 13.9842 16.384L19.1362 23.744H14.6562ZM14.5602 9.312C14.5602 7.88267 14.0909 6.784 13.1522 6.016C12.2135 5.248 10.8375 4.864 9.02419 4.864H4.16019V13.792H9.02419C10.8375 13.792 12.2135 13.408 13.1522 12.64C14.0909 11.8507 14.5602 10.7413 14.5602 9.312ZM29.8704 20.576C31.7264 20.576 33.2731 19.9573 34.5104 18.72L36.6224 21.184C35.8758 22.1013 34.9158 22.7947 33.7424 23.264C32.5691 23.7333 31.2464 23.968 29.7744 23.968C27.8971 23.968 26.2438 23.5947 24.8144 22.848C23.3851 22.1013 22.2758 21.0667 21.4864 19.744C20.7184 18.4 20.3344 16.8853 20.3344 15.2C20.3344 13.536 20.7078 12.0427 21.4544 10.72C22.2224 9.376 23.2678 8.33067 24.5904 7.584C25.9344 6.83734 27.4491 6.464 29.1344 6.464C30.7344 6.464 32.1851 6.816 33.4864 7.52C34.8091 8.20267 35.8544 9.19467 36.6224 10.496C37.3904 11.776 37.7744 13.28 37.7744 15.008L24.6864 17.568C25.0918 18.5493 25.7424 19.296 26.6384 19.808C27.5344 20.32 28.6118 20.576 29.8704 20.576ZM29.1344 9.664C27.6624 9.664 26.4678 10.144 25.5504 11.104C24.6544 12.064 24.2064 13.3547 24.2064 14.976V15.008L33.8704 13.152C33.5931 12.1067 33.0278 11.264 32.1744 10.624C31.3424 9.984 30.3291 9.664 29.1344 9.664ZM57.0734 1.90735e-06V23.744H53.2334V21.536C52.5721 22.3467 51.7508 22.9547 50.7694 23.36C49.8094 23.7653 48.7428 23.968 47.5694 23.968C45.9268 23.968 44.4441 23.6053 43.1214 22.88C41.8201 22.1547 40.7961 21.1307 40.0494 19.808C39.3028 18.464 38.9294 16.928 38.9294 15.2C38.9294 13.472 39.3028 11.9467 40.0494 10.624C40.7961 9.30134 41.8201 8.27734 43.1214 7.552C44.4441 6.82667 45.9268 6.464 47.5694 6.464C48.7001 6.464 49.7348 6.656 50.6734 7.04C51.6121 7.424 52.4121 8 53.0734 8.768V1.90735e-06H57.0734ZM48.0494 20.544C49.0094 20.544 49.8734 20.3307 50.6414 19.904C51.4094 19.456 52.0174 18.8267 52.4654 18.016C52.9134 17.2053 53.1374 16.2667 53.1374 15.2C53.1374 14.1333 52.9134 13.1947 52.4654 12.384C52.0174 11.5733 51.4094 10.9547 50.6414 10.528C49.8734 10.08 49.0094 9.856 48.0494 9.856C47.0894 9.856 46.2254 10.08 45.4574 10.528C44.6894 10.9547 44.0814 11.5733 43.6334 12.384C43.1854 13.1947 42.9614 14.1333 42.9614 15.2C42.9614 16.2667 43.1854 17.2053 43.6334 18.016C44.0814 18.8267 44.6894 19.456 45.4574 19.904C46.2254 20.3307 47.0894 20.544 48.0494 20.544ZM71.2022 4.672C69.2822 4.672 67.8315 5.09867 66.8502 5.952C65.8689 6.80534 65.3782 8.064 65.3782 9.728V11.648H75.1382V15.168H65.3782V23.744H61.2182V9.728C61.2182 7.01867 62.0822 4.896 63.8102 3.36C65.5595 1.80267 67.9595 1.024 71.0102 1.024C72.2902 1.024 73.4849 1.16267 74.5942 1.44C75.7035 1.71734 76.6742 2.12267 77.5062 2.656L76.1942 6.048C74.8715 5.13067 73.2075 4.672 71.2022 4.672ZM84.9094 23.968C83.1388 23.968 81.7521 23.488 80.7494 22.528C79.7681 21.5467 79.2774 20.1707 79.2774 18.4V1.90735e-06H83.2774V18.112C83.2774 19.8187 84.0774 20.672 85.6774 20.672C86.2108 20.672 86.6908 20.5653 87.1174 20.352L87.3094 23.552C86.5628 23.8293 85.7628 23.968 84.9094 23.968ZM96.5629 20.576C98.4189 20.576 99.9656 19.9573 101.203 18.72L103.315 21.184C102.568 22.1013 101.608 22.7947 100.435 23.264C99.2616 23.7333 97.9389 23.968 96.4669 23.968C94.5896 23.968 92.9363 23.5947 91.5069 22.848C90.0776 22.1013 88.9683 21.0667 88.1789 19.744C87.4109 18.4 87.0269 16.8853 87.0269 15.2C87.0269 13.536 87.4003 12.0427 88.1469 10.72C88.9149 9.376 89.9603 8.33067 91.2829 7.584C92.6269 6.83734 94.1416 6.464 95.8269 6.464C97.4269 6.464 98.8776 6.816 100.179 7.52C101.502 8.20267 102.547 9.19467 103.315 10.496C104.083 11.776 104.467 13.28 104.467 15.008L91.3789 17.568C91.7843 18.5493 92.4349 19.296 93.3309 19.808C94.2269 20.32 95.3043 20.576 96.5629 20.576ZM95.8269 9.664C94.3549 9.664 93.1603 10.144 92.2429 11.104C91.3469 12.064 90.8989 13.3547 90.8989 14.976V15.008L100.563 13.152C100.286 12.1067 99.7203 11.264 98.8669 10.624C98.0349 9.984 97.0216 9.664 95.8269 9.664ZM117.441 23.744L113.057 17.824L108.641 23.744H104.225L110.881 15.072L104.513 6.656H108.961L113.153 12.256L117.345 6.656H121.665L115.265 15.008L121.953 23.744H117.441Z" fill="#5B98D7"/>
<path d="M137.888 23.904C136.245 23.904 134.677 23.6267 133.184 23.072C131.712 22.496 130.56 21.76 129.728 20.864L130.464 19.648C131.253 20.48 132.309 21.1627 133.632 21.696C134.976 22.208 136.384 22.464 137.856 22.464C139.989 22.464 141.6 22.0587 142.688 21.248C143.776 20.4373 144.32 19.3813 144.32 18.08C144.32 17.0773 144.032 16.2773 143.456 15.68C142.88 15.0827 142.165 14.624 141.312 14.304C140.459 13.984 139.307 13.6533 137.856 13.312C136.213 12.9067 134.891 12.512 133.888 12.128C132.907 11.744 132.064 11.1573 131.36 10.368C130.677 9.55734 130.336 8.48 130.336 7.136C130.336 6.048 130.624 5.056 131.2 4.16C131.776 3.24267 132.651 2.51734 133.824 1.984C135.019 1.45067 136.501 1.184 138.272 1.184C139.509 1.184 140.725 1.36534 141.92 1.728C143.115 2.09067 144.149 2.58134 145.024 3.2L144.416 4.512C143.52 3.89334 142.528 3.424 141.44 3.104C140.373 2.784 139.317 2.624 138.272 2.624C136.203 2.624 134.635 3.04 133.568 3.872C132.501 4.704 131.968 5.78134 131.968 7.104C131.968 8.10667 132.256 8.90667 132.832 9.504C133.408 10.1013 134.123 10.56 134.976 10.88C135.829 11.2 136.992 11.5413 138.464 11.904C140.107 12.3093 141.419 12.704 142.4 13.088C143.381 13.472 144.213 14.0587 144.896 14.848C145.6 15.616 145.952 16.6613 145.952 17.984C145.952 19.072 145.653 20.064 145.056 20.96C144.48 21.856 143.584 22.5707 142.368 23.104C141.152 23.6373 139.659 23.904 137.888 23.904ZM163.539 4.896C161.299 3.57334 158.771 2.83734 155.955 2.688V23.744H154.291V2.688C151.581 2.79467 149.053 3.53067 146.707 4.896L146.067 3.584C148.797 1.984 151.805 1.184 155.091 1.184C158.419 1.184 161.448 1.984 164.179 3.584L163.539 4.896ZM184.478 1.344V23.744H182.878V19.456C182.174 20.928 181.172 22.0373 179.87 22.784C178.569 23.5307 177.012 23.904 175.198 23.904C172.532 23.904 170.441 23.1147 168.926 21.536C167.412 19.9573 166.654 17.696 166.654 14.752V1.344H168.286V14.688C168.286 17.2053 168.905 19.1253 170.142 20.448C171.401 21.7493 173.172 22.4 175.454 22.4C177.801 22.4 179.614 21.7067 180.894 20.32C182.196 18.9333 182.846 16.864 182.846 14.112V1.344H184.478ZM191.004 1.344H199.868C202.193 1.344 204.252 1.824 206.044 2.784C207.857 3.744 209.265 5.07734 210.268 6.784C211.27 8.46934 211.772 10.3893 211.772 12.544C211.772 14.6987 211.27 16.6293 210.268 18.336C209.265 20.0213 207.857 21.344 206.044 22.304C204.252 23.264 202.193 23.744 199.868 23.744H191.004V1.344ZM199.74 22.272C201.809 22.272 203.633 21.8667 205.212 21.056C206.79 20.224 208.006 19.072 208.86 17.6C209.713 16.128 210.14 14.4427 210.14 12.544C210.14 10.6453 209.713 8.96 208.86 7.488C208.006 6.016 206.79 4.87467 205.212 4.064C203.633 3.232 201.809 2.816 199.74 2.816H192.636V22.272H199.74ZM219.877 2.816V22.272H224.581V23.744H213.541V22.272H218.245V2.816H213.541V1.344H224.581V2.816H219.877ZM237.979 23.904C235.782 23.904 233.798 23.4133 232.027 22.432C230.256 21.4293 228.859 20.064 227.835 18.336C226.832 16.608 226.331 14.6773 226.331 12.544C226.331 10.4107 226.832 8.48 227.835 6.752C228.859 5.024 230.256 3.66934 232.027 2.688C233.798 1.68534 235.782 1.184 237.979 1.184C240.176 1.184 242.16 1.67467 243.931 2.656C245.702 3.63734 247.088 4.992 248.091 6.72C249.115 8.448 249.627 10.3893 249.627 12.544C249.627 14.6987 249.115 16.64 248.091 18.368C247.088 20.096 245.702 21.4507 243.931 22.432C242.16 23.4133 240.176 23.904 237.979 23.904ZM237.979 22.4C239.856 22.4 241.552 21.9733 243.067 21.12C244.582 20.2667 245.776 19.0933 246.651 17.6C247.526 16.0853 247.963 14.4 247.963 12.544C247.963 10.688 247.526 9.01334 246.651 7.52C245.776 6.00534 244.582 4.82134 243.067 3.968C241.552 3.11467 239.856 2.688 237.979 2.688C236.102 2.688 234.395 3.11467 232.859 3.968C231.344 4.82134 230.15 6.00534 229.275 7.52C228.4 9.01334 227.963 10.688 227.963 12.544C227.963 14.4 228.4 16.0853 229.275 17.6C230.15 19.0933 231.344 20.2667 232.859 21.12C234.395 21.9733 236.102 22.4 237.979 22.4Z" fill="white"/>
</svg>
