<?xml version="1.0" encoding="UTF-8"?>
<svg version="1.1" xmlns="http://www.w3.org/2000/svg" width="362" height="403">
<path d="M0 0 C119.46 0 238.92 0 362 0 C362 132.99 362 265.98 362 403 C242.54 403 123.08 403 0 403 C0 270.01 0 137.02 0 0 Z " fill="#313334" transform="translate(0,0)"/>
<path d="M0 0 C1.20947579 -0.00709439 2.41895159 -0.01418877 3.66507816 -0.02149814 C7.01949888 -0.03605913 10.37250872 -0.02818029 13.72682619 -0.01077521 C17.34517556 0.00258838 20.96341759 -0.01283462 24.58175659 -0.02459717 C31.66886668 -0.04298578 38.75570124 -0.03445343 45.84280276 -0.01650894 C51.60210031 -0.00248887 57.36132301 0.00141114 63.12063599 -0.00195122 C64.34971478 -0.00266738 64.34971478 -0.00266738 65.60362345 -0.00339801 C67.26813914 -0.00442433 68.93265482 -0.00547969 70.59717047 -0.00656378 C85.31898587 -0.01513331 100.04066816 0.00155232 114.76245117 0.03126526 C129.05091951 0.06010329 143.33919609 0.06718655 157.62768555 0.05177307 C173.18322754 0.03501579 188.73867847 0.03097186 204.29422283 0.04848343 C205.95264879 0.05032784 207.61107475 0.05216257 209.26950073 0.0539875 C210.49349794 0.05535564 210.49349794 0.05535564 211.74222237 0.05675141 C217.49524759 0.06235976 223.2482284 0.05904686 229.00125122 0.05244255 C236.01137167 0.0447147 243.02130329 0.05144204 250.03138566 0.07661759 C253.60875486 0.08912554 257.18582988 0.09524374 260.7632103 0.08407593 C264.63903456 0.07220481 268.5143499 0.09126832 272.39013672 0.11352539 C274.09075555 0.10116424 274.09075555 0.10116424 275.82573032 0.08855337 C280.19098237 0.13501575 283.39662901 0.26244433 287.39361477 2.09336185 C290.08741572 5.88381199 289.88524521 9.14954265 289.82325745 13.7000885 C289.83035183 14.62765032 289.83744622 15.55521214 289.84475559 16.5108819 C289.86239199 19.62657461 289.84420173 22.74102913 289.82617188 25.85670471 C289.83130852 28.08723521 289.83858786 30.31776165 289.84785461 32.54827881 C289.86640906 38.61231883 289.85340423 44.67592062 289.83376431 50.73994255 C289.81741002 57.07887683 289.82618622 63.41778265 289.83128357 69.75672913 C289.83580812 80.40292882 289.82001629 91.04893495 289.79199219 101.69508362 C289.76315418 112.65056144 289.7560709 123.60578918 289.77148438 134.56129456 C289.79002926 147.76061527 289.7883128 160.95978745 289.76926994 174.15911865 C289.76238808 179.20212897 289.76344356 184.24504637 289.7708149 189.28805542 C289.77846248 195.22411267 289.7664012 201.15980863 289.73896599 207.09580421 C289.73206508 209.27751912 289.73200234 211.45926767 289.73918152 213.64098167 C289.74783654 216.61315752 289.73198683 219.58420818 289.70973206 222.55628967 C289.72209321 223.8595878 289.72209321 223.8595878 289.73470408 225.18921518 C289.72365639 225.98544338 289.7126087 226.78167157 289.70122623 227.60202789 C289.70003475 228.28791284 289.69884327 228.97379779 289.69761568 229.68046713 C288.94550987 232.59540256 287.54447201 233.80163789 285.19506836 235.62818909 C282.79209232 236.12958574 282.79209232 236.12958574 280.06007385 236.13155365 C278.49474993 236.14720013 278.49474993 236.14720013 276.89780331 236.16316271 C275.75268056 236.15423982 274.60755781 236.14531693 273.42773438 236.13612366 C271.60149332 236.1454836 271.60149332 236.1454836 269.7383585 236.15503263 C266.35713609 236.16824492 262.97680003 236.16346642 259.59563112 236.15108776 C255.95002443 236.14205202 252.30449622 236.15599962 248.65890503 236.16700745 C241.51655471 236.18481314 234.37437233 236.18094362 227.23201537 236.16935688 C221.42835468 236.16033086 215.62474113 236.15909495 209.82107544 236.16345215 C208.99571464 236.16406508 208.17035384 236.16467801 207.31998211 236.16530952 C205.64338516 236.16658839 203.96678822 236.16788525 202.29019129 236.16919988 C186.5611312 236.18061168 170.8321643 236.16748259 155.10311949 236.14599842 C141.60084483 236.12812688 128.09870772 236.13123082 114.59643555 236.14967346 C98.92445453 236.17106961 83.25255522 236.17951299 67.58056164 236.16722441 C65.91006153 236.16595018 64.23956141 236.1646927 62.56906128 236.16345215 C61.74709922 236.16283505 60.92513716 236.16221794 60.07826716 236.16158214 C54.2801957 236.15812547 48.48217599 236.16396441 42.68411255 236.17337036 C35.62015004 236.1845778 28.55636537 236.18157689 21.4924233 236.16024739 C17.88682595 236.14971988 14.28152531 236.14564369 10.67593002 236.15884399 C6.77125224 236.17292327 2.86706253 236.15613602 -1.03759766 236.13612366 C-2.1827204 236.14504654 -3.32784315 236.15396943 -4.50766659 236.16316271 C-5.55121587 236.15273172 -6.59476515 236.14230073 -7.66993713 236.13155365 C-8.57150323 236.13090424 -9.47306932 236.13025483 -10.4019556 236.12958574 C-13.62351099 235.45738716 -14.81603407 234.20807895 -16.80493164 231.62818909 C-17.30747896 229.68802983 -17.30747896 229.68802983 -17.31108952 227.62043858 C-17.3221372 226.82831048 -17.33318489 226.03618238 -17.34456736 225.22005039 C-17.33632659 224.35575804 -17.32808582 223.49146569 -17.31959534 222.60098267 C-17.32654087 221.67820996 -17.33348639 220.75543726 -17.34064239 219.80470175 C-17.35897319 216.70533682 -17.34863105 213.60673208 -17.33837891 210.50733948 C-17.3454343 208.28828354 -17.3541777 206.06923242 -17.36448669 203.85018921 C-17.38703307 197.81714639 -17.38402861 191.78436525 -17.37516522 185.75129628 C-17.37006353 180.71875895 -17.37734126 175.68627115 -17.3846373 170.65373892 C-17.40262653 158.10450707 -17.39620862 145.55540153 -17.37846749 133.00618326 C-17.36377184 122.10714804 -17.37839612 111.20838853 -17.40723766 100.30938882 C-17.43663055 89.11870661 -17.4470959 77.92812404 -17.43805546 66.73739809 C-17.43311919 60.45447065 -17.43537984 54.17175755 -17.45584297 47.88885689 C-17.47416105 41.98148425 -17.46828833 36.07462502 -17.44364357 30.1672802 C-17.43862346 27.99726494 -17.44215635 25.82721083 -17.45479202 23.65722656 C-17.47066034 20.69834917 -17.45582992 17.74117527 -17.43312073 14.78237915 C-17.45087432 13.48928671 -17.45087432 13.48928671 -17.46898657 12.17007118 C-17.407103 8.2108906 -17.05919955 6.05626718 -15.00347805 2.59531403 C-10.11987079 -0.40813329 -5.62979079 -0.05877214 0 0 Z " fill="#449CE2" transform="translate(44.804931640625,30.371810913085938)"/>
<path d="M0 0 C1.20947579 -0.00709439 2.41895159 -0.01418877 3.66507816 -0.02149814 C7.01949888 -0.03605913 10.37250872 -0.02818029 13.72682619 -0.01077521 C17.34517556 0.00258838 20.96341759 -0.01283462 24.58175659 -0.02459717 C31.66886668 -0.04298578 38.75570124 -0.03445343 45.84280276 -0.01650894 C51.60210031 -0.00248887 57.36132301 0.00141114 63.12063599 -0.00195122 C64.34971478 -0.00266738 64.34971478 -0.00266738 65.60362345 -0.00339801 C67.26813914 -0.00442433 68.93265482 -0.00547969 70.59717047 -0.00656378 C85.31898587 -0.01513331 100.04066816 0.00155232 114.76245117 0.03126526 C129.05091951 0.06010329 143.33919609 0.06718655 157.62768555 0.05177307 C173.18322754 0.03501579 188.73867847 0.03097186 204.29422283 0.04848343 C205.95264879 0.05032784 207.61107475 0.05216257 209.26950073 0.0539875 C210.49349794 0.05535564 210.49349794 0.05535564 211.74222237 0.05675141 C217.49524759 0.06235976 223.2482284 0.05904686 229.00125122 0.05244255 C236.01137167 0.0447147 243.02130329 0.05144204 250.03138566 0.07661759 C253.60875486 0.08912554 257.18582988 0.09524374 260.7632103 0.08407593 C264.63903456 0.07220481 268.5143499 0.09126832 272.39013672 0.11352539 C274.09075555 0.10116424 274.09075555 0.10116424 275.82573032 0.08855337 C280.19098237 0.13501575 283.39662901 0.26244433 287.39361477 2.09336185 C290.08741572 5.88381199 289.88524521 9.14954265 289.82325745 13.7000885 C289.83035183 14.62765032 289.83744622 15.55521214 289.84475559 16.5108819 C289.86239199 19.62657461 289.84420173 22.74102913 289.82617188 25.85670471 C289.83130852 28.08723521 289.83858786 30.31776165 289.84785461 32.54827881 C289.86640906 38.61231883 289.85340423 44.67592062 289.83376431 50.73994255 C289.81741002 57.07887683 289.82618622 63.41778265 289.83128357 69.75672913 C289.83580812 80.40292882 289.82001629 91.04893495 289.79199219 101.69508362 C289.76315418 112.65056144 289.7560709 123.60578918 289.77148438 134.56129456 C289.79002926 147.76061527 289.7883128 160.95978745 289.76926994 174.15911865 C289.76238808 179.20212897 289.76344356 184.24504637 289.7708149 189.28805542 C289.77846248 195.22411267 289.7664012 201.15980863 289.73896599 207.09580421 C289.73206508 209.27751912 289.73200234 211.45926767 289.73918152 213.64098167 C289.74783654 216.61315752 289.73198683 219.58420818 289.70973206 222.55628967 C289.72209321 223.8595878 289.72209321 223.8595878 289.73470408 225.18921518 C289.72365639 225.98544338 289.7126087 226.78167157 289.70122623 227.60202789 C289.70003475 228.28791284 289.69884327 228.97379779 289.69761568 229.68046713 C288.94550987 232.59540256 287.54447201 233.80163789 285.19506836 235.62818909 C282.79209232 236.12958574 282.79209232 236.12958574 280.06007385 236.13155365 C278.49474993 236.14720013 278.49474993 236.14720013 276.89780331 236.16316271 C275.75268056 236.15423982 274.60755781 236.14531693 273.42773438 236.13612366 C271.60149332 236.1454836 271.60149332 236.1454836 269.7383585 236.15503263 C266.35713609 236.16824492 262.97680003 236.16346642 259.59563112 236.15108776 C255.95002443 236.14205202 252.30449622 236.15599962 248.65890503 236.16700745 C241.51655471 236.18481314 234.37437233 236.18094362 227.23201537 236.16935688 C221.42835468 236.16033086 215.62474113 236.15909495 209.82107544 236.16345215 C208.99571464 236.16406508 208.17035384 236.16467801 207.31998211 236.16530952 C205.64338516 236.16658839 203.96678822 236.16788525 202.29019129 236.16919988 C186.5611312 236.18061168 170.8321643 236.16748259 155.10311949 236.14599842 C141.60084483 236.12812688 128.09870772 236.13123082 114.59643555 236.14967346 C98.92445453 236.17106961 83.25255522 236.17951299 67.58056164 236.16722441 C65.91006153 236.16595018 64.23956141 236.1646927 62.56906128 236.16345215 C61.74709922 236.16283505 60.92513716 236.16221794 60.07826716 236.16158214 C54.2801957 236.15812547 48.48217599 236.16396441 42.68411255 236.17337036 C35.62015004 236.1845778 28.55636537 236.18157689 21.4924233 236.16024739 C17.88682595 236.14971988 14.28152531 236.14564369 10.67593002 236.15884399 C6.77125224 236.17292327 2.86706253 236.15613602 -1.03759766 236.13612366 C-2.1827204 236.14504654 -3.32784315 236.15396943 -4.50766659 236.16316271 C-5.55121587 236.15273172 -6.59476515 236.14230073 -7.66993713 236.13155365 C-8.57150323 236.13090424 -9.47306932 236.13025483 -10.4019556 236.12958574 C-13.62351099 235.45738716 -14.81603407 234.20807895 -16.80493164 231.62818909 C-17.30747896 229.68802983 -17.30747896 229.68802983 -17.31108952 227.62043858 C-17.3221372 226.82831048 -17.33318489 226.03618238 -17.34456736 225.22005039 C-17.33632659 224.35575804 -17.32808582 223.49146569 -17.31959534 222.60098267 C-17.32654087 221.67820996 -17.33348639 220.75543726 -17.34064239 219.80470175 C-17.35897319 216.70533682 -17.34863105 213.60673208 -17.33837891 210.50733948 C-17.3454343 208.28828354 -17.3541777 206.06923242 -17.36448669 203.85018921 C-17.38703307 197.81714639 -17.38402861 191.78436525 -17.37516522 185.75129628 C-17.37006353 180.71875895 -17.37734126 175.68627115 -17.3846373 170.65373892 C-17.40262653 158.10450707 -17.39620862 145.55540153 -17.37846749 133.00618326 C-17.36377184 122.10714804 -17.37839612 111.20838853 -17.40723766 100.30938882 C-17.43663055 89.11870661 -17.4470959 77.92812404 -17.43805546 66.73739809 C-17.43311919 60.45447065 -17.43537984 54.17175755 -17.45584297 47.88885689 C-17.47416105 41.98148425 -17.46828833 36.07462502 -17.44364357 30.1672802 C-17.43862346 27.99726494 -17.44215635 25.82721083 -17.45479202 23.65722656 C-17.47066034 20.69834917 -17.45582992 17.74117527 -17.43312073 14.78237915 C-17.45087432 13.48928671 -17.45087432 13.48928671 -17.46898657 12.17007118 C-17.407103 8.2108906 -17.05919955 6.05626718 -15.00347805 2.59531403 C-10.11987079 -0.40813329 -5.62979079 -0.05877214 0 0 Z M6.19506836 29.62818909 C5.45490672 33.05229879 5.45490672 33.05229879 5.58033752 36.88418579 C5.57465427 37.60434087 5.56897101 38.32449594 5.56311554 39.0664739 C5.55021839 41.47443757 5.5729946 43.88071812 5.59570312 46.28858948 C5.59383893 48.0168086 5.58980199 49.74502654 5.58375549 51.47323608 C5.5737769 56.16337216 5.59495695 60.85290435 5.62223554 65.54295278 C5.64605811 70.44980666 5.64312053 75.3566484 5.64353943 80.2635498 C5.64816799 88.5027947 5.67181412 96.74180855 5.70800781 104.98097229 C5.7497554 114.5098622 5.76732346 124.03854409 5.77062756 133.5675202 C5.7742259 143.70884077 5.79309854 153.85008638 5.81774783 163.99137568 C5.82397911 166.91545502 5.82761374 169.83952864 5.83078194 172.76361275 C5.83667911 177.35600261 5.85298275 181.94824356 5.87738609 186.54057121 C5.8848316 188.22723108 5.88889838 189.9139097 5.88936615 191.60058594 C5.89062235 193.90026993 5.90415551 196.19956028 5.9209137 198.49917603 C5.9255642 199.78687928 5.93021471 201.07458254 5.93500614 202.40130711 C6.18188545 205.46461399 6.4566806 207.13365845 8.19506836 209.62818909 C11.29593988 211.69543677 11.94831929 211.8789198 15.45738125 211.88545799 C16.76891411 211.89513133 16.76891411 211.89513133 18.10694259 211.90500009 C19.06821266 211.90190289 20.02948274 211.89880568 21.0198822 211.89561462 C22.0405113 211.90014574 23.0611404 211.90467685 24.11269766 211.90934527 C27.54897275 211.92205383 30.98509066 211.92036475 34.42138672 211.91871643 C36.87836411 211.9246976 39.33533961 211.93150219 41.79231262 211.93907166 C47.78305764 211.95493855 53.77374033 211.96118179 59.76450055 211.96229641 C64.63282198 211.96324616 69.5011304 211.9673528 74.36944771 211.97369766 C88.16584931 211.99131311 101.96221978 212.00053596 115.75863271 211.99903671 C116.5026345 211.9989568 117.24663629 211.99887689 118.01318359 211.99879456 C118.75809154 211.99871279 119.50299949 211.99863103 120.2704804 211.99854679 C132.3471124 211.99773361 144.42361976 212.01687847 156.5002157 212.04507129 C168.89431491 212.07377752 181.28835328 212.08761286 193.68248659 212.08588374 C200.64333233 212.08521909 207.60404737 212.09074394 214.5648632 212.11223984 C221.10902756 212.13231927 227.65296248 212.13180114 234.19715691 212.11720657 C236.60303143 212.11510756 239.00892292 212.1198838 241.41476822 212.13192749 C244.69126556 212.14727115 247.96679566 212.13814351 251.24327087 212.12266541 C252.20231022 212.13295253 253.16134957 212.14323966 254.14945072 212.15383852 C259.32189297 212.15464407 259.32189297 212.15464407 263.7545557 209.72228432 C266.39948317 205.8773129 266.32874037 203.42090017 266.34896851 198.73968506 C266.35335076 198.02279882 266.35773301 197.30591259 266.36224806 196.56730253 C266.37565674 194.15294375 266.38181952 191.73862149 266.38793945 189.32423401 C266.39583874 187.59808181 266.40410758 185.87193126 266.41271973 184.14578247 C266.43895803 178.46675701 266.4542483 172.78772411 266.46850586 167.10865784 C266.47386463 165.15546984 266.47924214 163.2022819 266.48463821 161.24909401 C266.50626881 153.12618111 266.52500669 145.00327022 266.5362606 136.88033581 C266.55250737 125.22932186 266.58570072 113.57864102 266.64266145 101.92775267 C266.68132585 93.74086535 266.70088909 85.55406725 266.70618117 77.367091 C266.70983919 72.47463984 266.72190828 67.58254381 266.75428391 62.69019127 C266.78430333 58.08789437 266.79069839 53.48616863 266.77890015 48.88379478 C266.7786789 47.19429905 266.78702599 45.50477729 266.80455399 43.81537247 C266.82718359 41.50877221 266.81898211 39.204254 266.80307007 36.89764404 C266.80638021 35.60696612 266.80969036 34.3162882 266.81310081 32.98649883 C266.40182253 29.53311688 266.40182253 29.53311688 264.28573036 26.71353054 C259.8887006 23.74675241 256.33386772 23.93255452 251.13647461 23.99327087 C250.11484222 23.98547092 249.09320984 23.97767097 248.0406189 23.96963465 C244.61257006 23.94966906 241.18562571 23.96549796 237.75756836 23.98121643 C235.30191397 23.97444239 232.84626466 23.96554047 230.390625 23.95466614 C224.41037868 23.9342124 218.43056685 23.93723515 212.45033741 23.95172934 C207.59015643 23.96302123 202.73006338 23.96455273 197.86987305 23.95911026 C197.1781538 23.95834409 196.48643456 23.95757793 195.77375412 23.95678855 C194.36854042 23.95518992 192.96332675 23.95356885 191.5581131 23.95192559 C178.38131832 23.93766777 165.20469747 23.95406125 152.02793121 23.98092742 C140.72157733 24.00326631 129.41548011 23.99938619 118.10913086 23.97633362 C104.97951023 23.94957611 91.85004204 23.93904106 78.72039795 23.95439494 C77.32035321 23.95598768 75.92030845 23.95755954 74.52026367 23.95911026 C73.48699007 23.96026733 73.48699007 23.96026733 72.43284225 23.96144777 C67.57848196 23.96576494 62.72421836 23.9584779 57.86987305 23.94671249 C51.33627189 23.9312252 44.80308088 23.94225107 38.26950073 23.97118378 C35.86889452 23.97780597 33.46824758 23.97587774 31.06765747 23.96487045 C27.79577038 23.95124908 24.52544886 23.96829145 21.25366211 23.99327087 C20.29889984 23.98211727 19.34413757 23.97096366 18.36044312 23.95947206 C12.67571237 24.04392001 9.5219587 24.55218044 6.19506836 29.62818909 Z " fill="#FCFDFD" transform="translate(44.804931640625,30.371810913085938)"/>
<path d="M0 0 C0.33 0 0.66 0 1 0 C1 44.22 1 88.44 1 134 C-22.43 134 -45.86 134 -70 134 C-67.65881361 132.43920907 -65.7207175 131.41672301 -63.1875 130.3125 C-57.41838039 127.4385452 -53.71564571 123.13016328 -51.125 117.25 C-49.03729665 110.79937169 -48.80376107 103.83793346 -51.6875 97.625 C-55.292092 91.47081854 -60.15130611 87.17788091 -67 85 C-72.36202677 84.39263521 -77.70568494 84.39359443 -83.09375 84.390625 C-84.65175074 84.37562578 -86.20973567 84.358895 -87.7677002 84.34051514 C-91.84469375 84.29702424 -95.92147288 84.27688343 -99.99865723 84.26177979 C-104.16850366 84.24214237 -108.33812073 84.20018008 -112.5078125 84.16015625 C-120.67181467 84.08505229 -128.8357263 84.03464142 -137 84 C-138.43648181 76.86388503 -139.87089919 69.72735842 -141.30266571 62.59029579 C-141.96752181 59.27646255 -142.63309433 55.96277653 -143.30029297 52.64941406 C-144.06689978 48.84222158 -144.8304107 45.03441153 -145.59375 41.2265625 C-145.83436157 40.03382721 -146.07497314 38.84109192 -146.32287598 37.61221313 C-146.54310425 36.51122284 -146.76333252 35.41023254 -146.99023438 34.27587891 C-147.18564819 33.30325104 -147.38106201 32.33062317 -147.58239746 31.32852173 C-148 29 -148 29 -148 27 C-147.09388568 26.99641747 -147.09388568 26.99641747 -146.16946602 26.99276257 C-131.43656927 26.93349607 -116.70381837 26.85787196 -101.97110176 26.76428509 C-94.8463095 26.71941614 -87.72156623 26.67998127 -80.59667969 26.65356445 C-74.38296191 26.63051193 -68.16940033 26.59703375 -61.95580661 26.55129844 C-58.669042 26.52746325 -55.38246259 26.51022696 -52.09561539 26.50238609 C-48.41653908 26.49272341 -44.73802021 26.46463646 -41.05908203 26.43237305 C-39.98229691 26.43380814 -38.90551178 26.43524323 -37.7960968 26.4367218 C-27.23007724 26.30620529 -18.14442976 23.95071928 -10 17 C-5.09724702 11.8592493 -2.09084034 6.76448346 0 0 Z " fill="#FDFDFD" transform="translate(361,269)"/>
<path d="M0 0 C1.60576364 2.40864545 2.83876821 4.67753641 4.125 7.25 C8.56319686 15.23096804 15.34171395 20.23291889 24 23 C29.8348504 24.28580672 35.66081665 24.17396919 41.60498047 24.20532227 C42.76653152 24.21522186 43.92808258 24.22512146 45.12483215 24.23532104 C48.95559669 24.26685199 52.78637362 24.29166031 56.6171875 24.31640625 C59.27662574 24.33698303 61.93605841 24.35793296 64.5954895 24.37937927 C70.87451623 24.42919752 77.15356786 24.47417643 83.43264306 24.51740164 C90.58382428 24.56686719 97.73496075 24.62175062 104.88609862 24.67708123 C119.59068993 24.79073432 134.29532585 24.89760935 149 25 C148.8531682 26.73301705 148.70322256 28.46577043 148.55200195 30.19841003 C148.46884232 31.1633649 148.38568268 32.12831976 148.30000305 33.12251568 C147.85971599 37.34553647 147.05356692 41.4601419 146.1875 45.61328125 C146.01371826 46.47132858 145.83993652 47.32937592 145.66088867 48.21342468 C145.11278383 50.91427774 144.55671311 53.6134096 144 56.3125 C143.44501192 59.0297699 142.8916861 61.74737204 142.33911133 64.46513367 C141.99697159 66.14503066 141.6531535 67.82458701 141.30737305 69.5037384 C141.07207886 70.65104683 141.07207886 70.65104683 140.83203125 71.8215332 C140.69514893 72.48562698 140.5582666 73.14972076 140.41723633 73.8339386 C139.89443126 76.5480548 139.44616575 79.27235599 139 82 C138.12018463 81.99920441 137.24036926 81.99840881 136.33389282 81.99758911 C128.00737511 81.99537342 119.68154138 82.02198361 111.35521889 82.0802784 C107.07537034 82.10924473 102.79606584 82.12739916 98.51611328 82.12011719 C94.3789367 82.11348807 90.24283177 82.13620972 86.10587692 82.17855453 C84.53442581 82.18962256 82.96286516 82.19044323 81.39140701 82.18042374 C72.12429085 82.12895224 64.28726514 82.50107285 57 89 C51.07285422 96.47251727 50.05667652 103.57748474 51 113 C53.04283705 119.54236175 56.2239858 124.33445253 62 128 C64.95469814 129.19156679 67.92786971 130.16028439 71 131 C71 131.33 71 131.66 71 132 C47.57 132 24.14 132 0 132 C0 88.44 0 44.88 0 0 Z " fill="#FDFDFD" transform="translate(0,271)"/>
<path d="M0 0 C119.46 0 238.92 0 362 0 C362 8.25 362 16.5 362 25 C359.90111165 22.2014822 358.15534636 19.59224394 356.375 16.625 C351.5856348 9.41724246 344.31974393 5.18528412 336 3 C331.77688045 2.57157959 327.57845093 2.59064217 323.3364563 2.61231995 C322.07077533 2.60693441 320.80509435 2.60154887 319.50105941 2.59600013 C316.00387792 2.58158564 312.5069329 2.58577762 309.00973868 2.59316695 C305.23185263 2.59790629 301.45401718 2.58538197 297.67614746 2.57514954 C290.2810328 2.55797093 282.88600314 2.55711961 275.49087371 2.56236244 C269.47855543 2.56640728 263.46626224 2.56495685 257.45394516 2.55961418 C256.59755432 2.55886576 255.74116349 2.55811734 254.85882141 2.55734624 C253.11894099 2.55581472 251.37906058 2.55427638 249.63918017 2.55273127 C233.3300385 2.53900951 217.02094483 2.54444154 200.71180426 2.55591648 C185.80074422 2.56584755 170.8898083 2.55290981 155.97876741 2.52898229 C140.65774481 2.50458265 125.33678 2.49498561 110.01573837 2.50163502 C101.41829372 2.50512544 92.82094449 2.50290691 84.22351456 2.48538399 C76.90437875 2.47065115 69.58540557 2.47004061 62.26627292 2.4874549 C58.53433555 2.49595861 54.80268856 2.49813016 51.07076645 2.48280334 C47.0194467 2.46637122 42.96882545 2.48112308 38.91751099 2.49879456 C37.74590239 2.48918955 36.57429379 2.47958454 35.3671819 2.46968848 C25.13223912 2.56143673 17.0140134 5.37348022 9.05078125 11.8515625 C5.4060291 15.66987427 3.19460999 20.24070852 1 25 C0.67 25 0.34 25 0 25 C0 16.75 0 8.5 0 0 Z " fill="#F8F9F8" transform="translate(0,0)"/>
</svg>
