<?xml version="1.0" encoding="UTF-8"?>
<svg version="1.1" xmlns="http://www.w3.org/2000/svg" width="512" height="512">
<path d="M0 0 C28.38 0 56.76 0 86 0 C86 5.28 86 10.56 86 16 C99.58543455 16.42016808 109.02133521 11.78997965 120.87792969 5.44799805 C130.09054538 1.17524049 137.76674362 -0.58908221 147.94433594 -0.51757812 C149.18981201 -0.5245874 150.43528809 -0.53159668 151.71850586 -0.53881836 C155.10340063 -0.55330889 158.48730464 -0.55004985 161.87214184 -0.53730202 C165.43920786 -0.52708158 169.00623531 -0.53659335 172.57330322 -0.54284668 C178.56489536 -0.55010083 184.55628957 -0.54059842 190.54785156 -0.52148438 C197.43653219 -0.4997596 204.32473831 -0.50674371 211.21340728 -0.52879 C217.16289963 -0.54705594 223.1122507 -0.549447 229.06176209 -0.53903532 C232.59951922 -0.53285619 236.1370549 -0.53180721 239.67479706 -0.54518127 C257.13859246 -0.60223204 272.9421905 -0.55132617 288.625 8 C289.57632813 8.46599609 289.57632813 8.46599609 290.546875 8.94140625 C300.83826138 14.40996646 308.85207818 23.18166823 315.56597519 32.51250648 C327.78295357 49.34703479 341.6843816 66.10267398 363.12985504 69.66543138 C372.41118864 70.96017124 381.74162007 71.25472789 391.1015625 71.3203125 C392.29485019 71.33012091 392.29485019 71.33012091 393.5122447 71.34012747 C407.23719749 71.40942504 420.90738549 70.69320491 434.625 70.125 C472.925625 69.073125 472.925625 69.073125 512 68 C512 141.59 512 215.18 512 291 C393.53 291 275.06 291 153 291 C153 255.03 153 219.06 153 182 C147.72 181.34 142.44 180.68 137 180 C125.33559914 177.29219266 113.73698545 172.98643017 104.0234375 165.796875 C100.37354554 163.62768856 97.25646584 163.33955622 93.125 163.25 C90.77375 163.1675 88.4225 163.085 86 163 C86 171.25 86 179.5 86 188 C57.62 188 29.24 188 0 188 C0 125.96 0 63.92 0 0 Z M18 18 C18 68.16 18 118.32 18 170 C34.5 170 51 170 68 170 C68 119.84 68 69.68 68 18 C51.5 18 35 18 18 18 Z M117.24845505 27.74467278 C106.96392752 33.48659206 98.29842088 33.27656348 86 34 C86 70.63 86 107.26 86 145 C92.93 145.33 99.86 145.66 107 146 C112.18622736 148.8906841 116.34699446 151.52211576 121 155 C131.15876898 160.65909685 141.52367426 162.7248527 153 164 C153 150.47 153 136.94 153 123 C148.05 120.36 143.1 117.72 138 115 C136.02 113.35 134.04 111.7 132 110 C133.34006619 105.23532021 136.23508321 102.29602343 139.5390625 98.76953125 C141.21222049 97.12539969 141.21222049 97.12539969 141 95 C141.66644531 95.51949219 142.33289063 96.03898437 143.01953125 96.57421875 C155.88368723 106.30779691 166.91445624 110.12150206 183 109 C191.67619752 107.29354409 198.05010997 103.26436853 205 98 C206.9960843 96.66081172 208.99568309 95.32683515 211 94 C211.9505426 94.96719719 211.9505426 94.96719719 212.92028809 95.95393372 C218.90932535 102.04336707 224.91047886 108.12054301 230.92537689 114.18443775 C234.0169089 117.30200678 237.1036408 120.42402967 240.1796875 123.55688477 C243.15124843 126.58297467 246.13503854 129.59650338 249.1275177 132.60190392 C250.26413838 133.74772695 251.39636675 134.89792518 252.52397156 136.05262184 C261.19418538 145.43197649 261.19418538 145.43197649 273.03894043 149.07527161 C277.97733961 148.74912024 281.29982425 147.19560633 285 144 C288.53094776 139.35401611 289.85025647 135.52650711 289.46133423 129.65354919 C287.70407743 119.5459806 276.69515702 111.31324385 269.7265625 104.43359375 C268.43410614 103.14674254 267.14231787 101.85922001 265.85116577 100.57106018 C262.47453367 97.20580447 259.08898673 93.84966188 255.70141602 90.49542236 C252.2368535 87.06171706 248.78091863 83.61935164 245.32421875 80.17773438 C238.55783162 73.44338403 231.78198201 66.7186424 225 60 C225.93877926 58.8934059 226.87920916 57.78821201 227.8203125 56.68359375 C228.34383301 56.06798584 228.86735352 55.45237793 229.40673828 54.81811523 C231.5015791 52.42763415 233.71972471 50.21320837 236 48 C239.46281437 49.42633956 240.97947792 51.03840321 243.09326172 54.09326172 C248.66364436 61.32956679 254.29895461 67.8671117 263.76353836 69.27046585 C272.7346241 70.16306727 281.77400868 69.70266598 290.75817871 69.23596191 C294.73936665 69.04931485 298.72269833 68.96910266 302.70703125 68.87890625 C310.47709434 68.68781293 318.23673288 68.38217887 326 68 C320.01168271 60.89171721 313.6030247 54.27444297 307.07177734 47.66674805 C305.69852326 46.27197113 304.33155808 44.8709723 302.97119141 43.46362305 C288.76715659 28.77579019 274.12973475 17.82470985 252.76882935 17.38012695 C251.69221039 17.37722656 250.61559143 17.37432617 249.50634766 17.37133789 C248.33195129 17.35308456 247.15755493 17.33483124 245.9475708 17.31602478 C242.10294864 17.26317375 238.25899754 17.24037696 234.4140625 17.22265625 C233.07324226 17.21299964 231.73242561 17.20283205 230.39161301 17.19216728 C223.36244571 17.13738328 216.33356266 17.10626977 209.30419922 17.09399414 C202.82039155 17.0819362 196.33881587 17.01353532 189.85573161 16.91926771 C184.23556233 16.84048865 178.61612223 16.80568563 172.99540746 16.80234522 C169.66167339 16.79949943 166.33221265 16.7746871 162.99873734 16.71470833 C145.33695734 16.4208388 132.64540834 18.93854839 117.24845505 27.74467278 Z M277 86 C278.98 88.31 280.96 90.62 283 93 C283.67783507 93.86341979 284.35567015 94.72683958 285.05404568 95.61642361 C289.16315508 100.4199038 292.16715071 102.56410088 298.54908752 103.08229065 C301.11283304 103.10820433 303.67737888 103.08483815 306.24047852 103.02172852 C307.66050555 103.01918556 309.08054438 103.02062324 310.50056458 103.02571106 C314.33154179 103.02827966 318.15995128 102.97560292 321.99033475 102.91254544 C326.00204303 102.85604698 330.0138189 102.85097852 334.02586365 102.84031677 C341.61222819 102.81241197 349.19741688 102.73865262 356.78326505 102.64817137 C365.42401327 102.5473586 374.06481949 102.49803683 382.70600998 102.45291245 C400.47133844 102.35899467 418.23557448 102.2008283 436 102 C435.97752197 103.08031494 435.95504395 104.16062988 435.93188477 105.27368164 C435.91369963 106.71499997 435.89606966 108.15632539 435.87890625 109.59765625 C435.86267212 110.30684204 435.84643799 111.01602783 435.82971191 111.7467041 C435.74751639 120.97646638 438.89458492 128.13661603 445.125 134.9375 C454.99228759 143.9989591 464.98661047 145 478 145 C478 167.77 478 190.54 478 214 C473.05 214 468.1 214 463 214 C453.31030207 216.11185724 445.82932892 221.74368699 440.21875 229.92578125 C435.11496318 238.61203382 436 245.28782003 436 256 C368.02 256 300.04 256 230 256 C230 251.71 230 247.42 230 243 C228.54741635 236.68126113 226.97199639 232.17563166 223 227 C222.46375 226.175 221.9275 225.35 221.375 224.5 C216.26658299 219.12271894 209.95082338 216.31694113 203 214 C197.72 214 192.44 214 187 214 C187 191.23 187 168.46 187 145 C190.3 145 193.6 145 197 145 C207.88323053 143.87923371 215.16974487 139.4137522 223 132 C221.02532838 129.64002661 219.03064825 127.31119834 217 125 C216.11828125 123.98099609 216.11828125 123.98099609 215.21875 122.94140625 C212.02001326 119.19180362 212.02001326 119.19180362 207.5625 117.8125 C205.50831431 118.76443971 203.49570415 119.80587278 201.5 120.875 C191.94820373 125.80322509 181.56739821 126.18712321 171 127 C171 175.18 171 223.36 171 273 C277.59 273 384.18 273 494 273 C494 211.29 494 149.58 494 86 C422.39 86 350.78 86 277 86 Z M306 120 C306 126.6 306 133.2 306 140 C305.67 141.98 305.34 143.96 305 146 C305.83402344 145.51789063 306.66804688 145.03578125 307.52734375 144.5390625 C320.33160669 137.35224825 332.0791202 134.55336868 346.6875 138.5625 C357.95867445 142.42845839 366.17895532 149.42727273 371.75 159.875 C377.39884211 171.91738688 377.43645869 184.49420891 373 197 C367.93354045 207.90630389 360.22645505 215.63133423 349 220 C338.51427233 223.56640318 325.61443952 223.73733492 315.38671875 219.2578125 C303.62419153 213.0589029 296.70608699 205.52363646 292 193 C290.72442097 188.59876982 290.81602558 184.36402109 290.8125 179.8125 C290.80025391 178.99974609 290.78800781 178.18699219 290.77539062 177.34960938 C290.76180184 171.6559064 291.54043686 166.50003085 293 161 C290.16023605 161.92457431 287.36253237 162.84428937 284.6171875 164.0234375 C275.60729728 167.38533683 265.68090132 166.22995789 257 162.4375 C249.28256597 158.26633626 243.07134122 151.23111336 237 145 C233.66056168 146.47997835 231.24500651 148.41976933 228.5 150.8125 C221.42492397 156.57931493 213.56836455 159.14387848 205 162 C205 173.55 205 185.1 205 197 C209.29 198.32 213.58 199.64 218 201 C232.85976246 209.10532498 240.66123653 218.86914384 246 235 C246.33 235.99 246.66 236.98 247 238 C303.76 238 360.52 238 419 238 C420.32 233.71 421.64 229.42 423 225 C429.7679395 212.54699132 438.70555086 204.18517518 452 199 C454.64 198.34 457.28 197.68 460 197 C460 185.45 460 173.9 460 162 C453.565 159.525 453.565 159.525 447 157 C430.67574358 148.44919902 424.31270975 136.83389268 418 120 C381.04 120 344.08 120 306 120 Z M313 163 C308.14295695 169.89823076 306.64769186 176.66626365 308 185 C310.72834988 193.53360535 315.63487512 198.43227948 323.1875 202.875 C330.41138519 205.00663825 337.34308428 205.1328676 344.3125 202.0625 C350.70787249 198.42712723 354.70912798 193.1991176 357.4375 186.4375 C358.89405697 177.53631855 357.89214297 170.42009299 352.52734375 162.94921875 C347.77079329 157.69789708 341.87835421 154.79794641 334.8984375 153.65625 C326.38636081 153.24929813 318.49529559 156.55018657 313 163 Z " fill="#000000" transform="translate(0,0)"/>
<path d="M0 0 C28.38 0 56.76 0 86 0 C86 56.43 86 112.86 86 171 C57.62 171 29.24 171 0 171 C-0.33 167.37 -0.66 163.74 -1 160 C-2.15000488 160.44653931 -2.15000488 160.44653931 -3.32324219 160.90209961 C-6.79787998 162.24969277 -10.2739186 163.5936352 -13.75 164.9375 C-14.9565625 165.40607422 -16.163125 165.87464844 -17.40625 166.35742188 C-18.56640625 166.80537109 -19.7265625 167.25332031 -20.921875 167.71484375 C-21.99018555 168.12855225 -23.05849609 168.54226074 -24.15917969 168.96850586 C-28.49583509 170.54313366 -32.05342843 171.12752119 -36.68397522 171.14717102 C-37.84314453 171.15432632 -39.00231384 171.16148163 -40.1966095 171.16885376 C-41.46469955 171.17154266 -42.73278961 171.17423157 -44.03930664 171.17700195 C-45.39149143 171.18327026 -46.7436745 171.18991739 -48.09585571 171.19691467 C-52.53394377 171.21792103 -56.97203203 171.22831669 -61.41015625 171.23828125 C-62.94159907 171.24233066 -64.47304172 171.24644764 -66.00448418 171.25063133 C-73.20354857 171.26967875 -80.40260276 171.28390839 -87.60168749 171.2922433 C-95.89222244 171.30200189 -104.18248941 171.32828702 -112.47293001 171.36874419 C-118.89266459 171.39898906 -125.31232274 171.41372024 -131.73212713 171.41702431 C-135.56053823 171.41936607 -139.38866294 171.428211 -143.21699715 171.45348549 C-146.82453264 171.47691724 -150.43159626 171.48093966 -154.03918839 171.47072411 C-155.9777305 171.46999956 -157.91624946 171.48898594 -159.85469055 171.50878906 C-169.74066436 171.45056027 -177.97651396 169.22084987 -186.41796875 163.99609375 C-187.8088269 163.14748779 -187.8088269 163.14748779 -189.2277832 162.28173828 C-190.20448975 161.67313965 -191.18119629 161.06454102 -192.1875 160.4375 C-194.39255878 159.08874713 -196.59832324 157.74114748 -198.8046875 156.39453125 C-199.38094376 156.04114685 -199.95720001 155.68776245 -200.55091858 155.32366943 C-206.91864861 151.42191126 -213.34854508 147.62653287 -219.77798462 143.82766724 C-231.13509093 137.11411776 -242.44371924 130.32633837 -253.7081604 123.45855713 C-263.09787229 117.73583629 -272.53713266 112.10082849 -282 106.5 C-293.56921968 99.65221657 -305.0943417 92.73690214 -316.57104492 85.73510742 C-321.99491082 82.4270432 -327.42941837 79.14438672 -332.91040039 75.93188477 C-343.68449329 69.59133593 -351.58202189 63.50260413 -355 51 C-356.11273586 39.35726903 -355.48491211 28.92391947 -347.9453125 19.40625 C-341.62877468 12.67443807 -334.7967712 8.39029033 -325.4609375 7.76171875 C-324.09907315 7.73130819 -322.73706798 7.70673825 -321.375 7.6875 C-320.71371094 7.65849609 -320.05242187 7.62949219 -319.37109375 7.59960938 C-309.46568143 7.47602937 -300.76547131 12.98176763 -292.25 17.5 C-291.25266846 18.02480957 -290.25533691 18.54961914 -289.2277832 19.09033203 C-280.69352694 23.59648389 -272.21986141 28.21164328 -263.7578125 32.8515625 C-248.23791931 41.354799 -232.62747254 49.69629347 -217 58 C-216.73960937 57.1028125 -216.47921875 56.205625 -216.2109375 55.28125 C-213.15242136 46.99365787 -206.63040864 42.27645375 -198.91375732 38.57556152 C-190.37726351 34.9492605 -181.17251961 32.92931329 -172.2265625 30.578125 C-170.01256528 29.98705049 -167.79881405 29.39505385 -165.58529663 28.80218506 C-160.96296678 27.56712957 -156.33840348 26.34096109 -151.71191406 25.12158203 C-145.81546795 23.56707089 -139.9241964 21.99392784 -134.03438759 20.4144783 C-129.46840818 19.19163874 -124.90026566 17.97705117 -120.33140182 16.76503754 C-118.15977611 16.18827537 -115.98870302 15.60942793 -113.81822586 15.02835846 C-99.3564406 11.16481674 -85.34365459 7.65493194 -70.26953125 7.734375 C-69.42758713 7.73246155 -68.58564301 7.7305481 -67.71818542 7.72857666 C-65.96487117 7.72723405 -64.21154629 7.7307933 -62.45825195 7.73925781 C-59.80592218 7.75002671 -57.15426313 7.7392752 -54.50195312 7.7265625 C-32.37794581 7.70586167 -32.37794581 7.70586167 -23.375 12.5 C-21.90933594 13.27730469 -21.90933594 13.27730469 -20.4140625 14.0703125 C-13.54965616 17.95019435 -6.77142098 21.9589907 0 26 C0 17.42 0 8.84 0 0 Z M18 18 C18 62.55 18 107.1 18 153 C34.5 153 51 153 68 153 C68 108.45 68 63.9 68 18 C51.5 18 35 18 18 18 Z M-336 35 C-337.19314542 37.38629084 -337.2350148 39.02445596 -337.3125 41.6875 C-337.34988281 42.51636719 -337.38726562 43.34523438 -337.42578125 44.19921875 C-336.62177867 49.48793294 -334.15903182 53.07323947 -330.07861328 56.3359375 C-328.40387939 57.34527344 -328.40387939 57.34527344 -326.6953125 58.375 C-326.08253448 58.75019775 -325.46975647 59.12539551 -324.83840942 59.51196289 C-322.90192208 60.69158403 -320.95233667 61.84684048 -319 63 C-317.76993325 63.73993109 -316.54043219 64.4808035 -315.31152344 65.22265625 C-312.17485332 67.10804487 -309.02531132 68.97070695 -305.87075806 70.82598877 C-302.36973325 72.88547811 -298.87417403 74.95419685 -295.37890625 77.0234375 C-294.67156845 77.44209076 -293.96423065 77.86074402 -293.23545837 78.29208374 C-286.39388521 82.34771608 -279.60046465 86.48049877 -272.8125 90.625 C-262.83336221 96.71511795 -252.78304787 102.67105155 -242.68347168 108.559021 C-232.99414723 114.21052902 -223.3828422 119.97996369 -213.80670166 125.82095337 C-203.40287849 132.1663548 -192.93604251 138.39826338 -182.42480469 144.56396484 C-178.9741646 146.60752757 -175.55267355 148.69878741 -172.13330078 150.79418945 C-168.59722497 152.79289378 -165.77353893 153.13758878 -161.78518677 153.1942749 C-160.70388992 153.21154633 -159.62259308 153.22881775 -158.50852966 153.24661255 C-157.32122757 153.26029877 -156.13392548 153.27398499 -154.91064453 153.28808594 C-153.65956406 153.30590118 -152.40848358 153.32371643 -151.11949158 153.34207153 C-139.49124289 153.49748984 -127.86209006 153.58577174 -116.23301888 153.65206528 C-107.66930821 153.70189063 -99.10756475 153.78706683 -90.54474366 153.92068648 C-84.4925188 154.01184556 -78.44081839 154.05870442 -72.38793838 154.07564378 C-68.79271009 154.0869251 -65.19998769 154.11573336 -61.6055336 154.19359589 C-41.52724224 154.60990983 -25.91046786 151.39359434 -7.72477531 143.21921158 C-5.17297898 142.07740014 -2.6025217 141.01996622 0 140 C0.30160855 128.14356954 0.53238921 116.28805528 0.67355824 104.42856598 C0.74132631 98.92104848 0.83317587 93.4161602 0.98071289 87.91015625 C1.12229036 82.59309738 1.19975475 77.27856111 1.23340416 71.95976257 C1.25737091 69.93405933 1.30418084 67.90848991 1.37449074 65.88386536 C2.16884363 55.63940563 2.16884363 55.63940563 -1.25216293 46.39088058 C-4.74580625 43.34599638 -8.72141364 41.72820722 -13 40 C-14.79820737 38.92423426 -16.57938686 37.81850461 -18.328125 36.6640625 C-19.96840952 35.65049046 -21.60902802 34.63745867 -23.25 33.625 C-24.06984375 33.10550781 -24.8896875 32.58601563 -25.734375 32.05078125 C-36.00597637 25.76105066 -45.56692373 25.67675817 -57.34570312 25.73925781 C-59.7307312 25.74991391 -62.11499578 25.73935336 -64.5 25.7265625 C-66.05729328 25.72788547 -67.6145861 25.73045069 -69.171875 25.734375 C-69.86400085 25.73032654 -70.55612671 25.72627808 -71.26922607 25.72210693 C-85.67670427 25.85360726 -99.40822463 30.02817285 -113.20703125 33.7421875 C-115.34395602 34.31302519 -117.4809766 34.88350435 -119.61808777 35.4536438 C-124.07468151 36.64435097 -128.52986262 37.84017475 -132.98413086 39.03955078 C-138.67818817 40.57218965 -144.37591782 42.09064632 -150.07481861 43.60516167 C-154.48005968 44.77778379 -158.88309388 45.95852426 -163.28552818 47.14163589 C-165.38546952 47.70481002 -167.48612153 48.26534142 -169.58750343 48.8231163 C-172.52524706 49.60405779 -175.45979122 50.39607229 -178.39379883 51.19091797 C-179.25163467 51.41651398 -180.10947052 51.64210999 -180.99330139 51.87454224 C-188.45014468 53.91660439 -195.75093958 56.13613317 -200 63 C-202.2089012 67.73335971 -202.48534216 72.00384911 -201 77 C-199.0624544 80.89059156 -196.79943234 83.43676358 -193.25 85.9375 C-184.22356789 88.88844896 -175.51317753 85.88251828 -166.6875 83.5 C-165.22443985 83.11376441 -163.76113236 82.7284648 -162.29760742 82.34399414 C-157.9293969 81.19260073 -153.56557268 80.02518938 -149.20202637 78.85626221 C-145.63330029 77.90193987 -142.06339051 76.95210753 -138.49316406 76.00341797 C-137.83409026 75.8282773 -137.17501646 75.65313663 -136.49597073 75.47268867 C-135.13601159 75.11130363 -133.77605134 74.74992279 -132.41609001 74.38854599 C-116.93970626 70.2752918 -101.46871958 66.14198096 -86 62 C-85.68692614 63.70822826 -85.37456992 65.41658805 -85.0625 67.125 C-84.88847656 68.07632813 -84.71445312 69.02765625 -84.53515625 70.0078125 C-83.99971837 73.00157467 -83.49420018 75.99918088 -83 79 C-94.64769943 82.11377576 -106.29584628 85.22587159 -117.94456768 88.33582211 C-123.35348449 89.77993962 -128.76224534 91.22463587 -134.1706543 92.6706543 C-139.38981692 94.06605211 -144.60938321 95.45993025 -149.82923317 96.85275459 C-151.82087476 97.38447502 -153.81237015 97.91674335 -155.80371666 98.44956779 C-158.59231112 99.19561167 -161.38141844 99.93970792 -164.1706543 100.68334961 C-164.99424438 100.90417206 -165.81783447 101.12499451 -166.66638184 101.35250854 C-177.49293639 104.23309761 -190.70996273 106.92267759 -201.05078125 101.25 C-201.69402344 100.8375 -202.33726562 100.425 -203 100 C-203.69480469 99.5875 -204.38960937 99.175 -205.10546875 98.75 C-211.36864886 94.61371595 -215.96828579 88.45733362 -217.67529297 81.08251953 C-219.38002623 77.11570013 -221.71145545 75.92983124 -225.421875 74.1171875 C-226.06943756 73.78101913 -226.71700012 73.44485077 -227.38418579 73.09849548 C-229.49744741 72.00607919 -231.6232947 70.94096962 -233.75 69.875 C-235.22196692 69.11892031 -236.69282751 68.36068305 -238.16259766 67.6003418 C-241.09270481 66.08584925 -244.02668566 64.57933561 -246.96386719 63.07861328 C-252.15310241 60.41788304 -257.26941818 57.62982257 -262.375 54.8125 C-264.10509287 53.86389748 -265.83556462 52.91598564 -267.56640625 51.96875 C-268.43539551 51.49308594 -269.30438477 51.01742187 -270.19970703 50.52734375 C-276.66657068 47.0001686 -283.15012223 43.50347115 -289.64599609 40.0300293 C-294.486299 37.44181682 -299.31114742 34.84145682 -304.07421875 32.11328125 C-313.41221363 26.56405699 -313.41221363 26.56405699 -323.98828125 25.4375 C-329.51659164 26.98327999 -332.76249442 30.44351066 -336 35 Z " fill="#000000" transform="translate(426,341)"/>
</svg>
